<svg xmlns="http://www.w3.org/2000/svg" width="192" height="192" viewBox="0 0 50.8 50.8"><path d="M50.8 25.4a25.4 25.4 0 0 1-25.4 25.4A25.4 25.4 0 0 1 0 25.4 25.4 25.4 0 0 1 25.4 0a25.4 25.4 0 0 1 25.4 25.4Z" style="opacity:1;fill:#000;fill-opacity:1;stroke:none;stroke-width:4;stroke-linecap:butt;stroke-linejoin:miter;stroke-miterlimit:4;stroke-dasharray:none;stroke-dashoffset:0;stroke-opacity:1"/><path style="opacity:1;fill:#1a1a1a;fill-opacity:1;stroke:none;stroke-width:4;stroke-linecap:butt;stroke-linejoin:miter;stroke-miterlimit:4;stroke-dasharray:none;stroke-dashoffset:0;stroke-opacity:1" d="M16.933 16.933h16.933v16.933H16.933z"/><path style="opacity:1;fill:#333;fill-opacity:1;stroke:none;stroke-width:4;stroke-linecap:butt;stroke-linejoin:miter;stroke-miterlimit:4;stroke-dasharray:none;stroke-dashoffset:0;stroke-opacity:1" d="M5.262 60a90 90 0 0 0-1.242 3.402 90 90 0 0 0-2.225 8.717 90 90 0 0 0-1.346 8.897A90 90 0 0 0 0 90a90 90 0 0 0 .225 6.367 90 90 0 0 0 1.084 8.93 90 90 0 0 0 1.97 8.777A90 90 0 0 0 5.25 120H60V60H5.262z" transform="scale(.28222)"/><path style="opacity:1;fill:#1a1a1a;fill-opacity:1;stroke:none;stroke-width:4;stroke-linecap:butt;stroke-linejoin:miter;stroke-miterlimit:4;stroke-dasharray:none;stroke-dashoffset:0;stroke-opacity:1" d="M5.25 120a90 90 0 0 0 .867 2.611 90 90 0 0 0 3.674 8.213 90 90 0 0 0 4.477 7.803 90 90 0 0 0 5.232 7.318 90 90 0 0 0 5.938 6.758 90 90 0 0 0 6.582 6.133 90 90 0 0 0 7.162 5.443 90 90 0 0 0 7.67 4.703 90 90 0 0 0 8.101 3.913A90 90 0 0 0 60 174.738V120H5.25z" transform="scale(.28222)"/><path style="opacity:1;fill:#4d4d4d;fill-opacity:1;stroke:none;stroke-width:4;stroke-linecap:butt;stroke-linejoin:miter;stroke-miterlimit:4;stroke-dasharray:none;stroke-dashoffset:0;stroke-opacity:1" d="M60 174.738a90 90 0 0 0 3.402 1.242 90 90 0 0 0 8.717 2.225 90 90 0 0 0 8.897 1.346A90 90 0 0 0 90 180a90 90 0 0 0 6.367-.225 90 90 0 0 0 8.93-1.084 90 90 0 0 0 8.777-1.97A90 90 0 0 0 120 174.75V120H60v54.738z" transform="scale(.28222)"/><path style="opacity:1;fill:#333;fill-opacity:1;stroke:none;stroke-width:4;stroke-linecap:butt;stroke-linejoin:miter;stroke-miterlimit:4;stroke-dasharray:none;stroke-dashoffset:0;stroke-opacity:1" d="M120 174.75a90 90 0 0 0 2.611-.867 90 90 0 0 0 8.213-3.674 90 90 0 0 0 7.803-4.477 90 90 0 0 0 7.318-5.232 90 90 0 0 0 6.758-5.938 90 90 0 0 0 6.133-6.582 90 90 0 0 0 5.443-7.162 90 90 0 0 0 4.703-7.67 90 90 0 0 0 3.913-8.101 90 90 0 0 0 1.843-5.047H120v54.75z" transform="scale(.28222)"/><path style="opacity:1;fill:#4d4d4d;fill-opacity:1;stroke:none;stroke-width:4;stroke-linecap:butt;stroke-linejoin:miter;stroke-miterlimit:4;stroke-dasharray:none;stroke-dashoffset:0;stroke-opacity:1" d="M174.738 120a90 90 0 0 0 1.242-3.402 90 90 0 0 0 2.225-8.717 90 90 0 0 0 1.346-8.897A90 90 0 0 0 180 90a90 90 0 0 0-.225-6.367 90 90 0 0 0-1.084-8.93 90 90 0 0 0-1.97-8.777A90 90 0 0 0 174.75 60H120v60h54.738z" transform="scale(.28222)"/><path style="opacity:1;fill:#1a1a1a;fill-opacity:1;stroke:none;stroke-width:4;stroke-linecap:butt;stroke-linejoin:miter;stroke-miterlimit:4;stroke-dasharray:none;stroke-dashoffset:0;stroke-opacity:1" d="M174.75 60a90 90 0 0 0-.867-2.611 90 90 0 0 0-3.674-8.213 90 90 0 0 0-4.477-7.803 90 90 0 0 0-5.232-7.318 90 90 0 0 0-5.938-6.758 90 90 0 0 0-6.582-6.133 90 90 0 0 0-7.162-5.443 90 90 0 0 0-7.67-4.703 90 90 0 0 0-8.101-3.913A90 90 0 0 0 120 5.262V60h54.75z" transform="scale(.28222)"/><path style="opacity:1;fill:#333;fill-opacity:1;stroke:none;stroke-width:4;stroke-linecap:butt;stroke-linejoin:miter;stroke-miterlimit:4;stroke-dasharray:none;stroke-dashoffset:0;stroke-opacity:1" d="M90 0a90 90 0 0 0-6.367.225 90 90 0 0 0-8.93 1.084 90 90 0 0 0-8.777 1.97A90 90 0 0 0 60 5.25V60h60V5.262a90 90 0 0 0-3.402-1.242 90 90 0 0 0-8.717-2.225A90 90 0 0 0 98.984.449 90 90 0 0 0 90 0z" transform="scale(.28222)"/><path style="opacity:1;fill:#4d4d4d;fill-opacity:1;stroke:none;stroke-width:4;stroke-linecap:butt;stroke-linejoin:miter;stroke-miterlimit:4;stroke-dasharray:none;stroke-dashoffset:0;stroke-opacity:1" d="M60 5.25a90 90 0 0 0-2.611.867 90 90 0 0 0-8.213 3.674 90 90 0 0 0-7.803 4.477 90 90 0 0 0-7.318 5.232 90 90 0 0 0-6.758 5.938 90 90 0 0 0-6.133 6.582 90 90 0 0 0-5.443 7.162 90 90 0 0 0-4.703 7.67 90 90 0 0 0-3.913 8.101A90 90 0 0 0 5.262 60H60V5.25z" transform="scale(.28222)"/><path d="m25.06 30.657 15.372-15.371a.97.97 0 0 1 1.367 0 .972.972 0 0 1-.001 1.364L26.425 32.02a.966.966 0 0 1-1.361.002.972.972 0 0 1-.003-1.366m2.726 2.728 13.002-13a.967.967 0 0 1 1.363 0 .97.97 0 0 1 0 1.363l-13.001 13a.967.967 0 0 1-1.362 0 .97.97 0 0 1-.001-1.363m2.726 2.727L40.88 25.747a.97.97 0 0 1 1.364-.002.972.972 0 0 1-.002 1.366L31.878 37.475a.968.968 0 0 1-1.364 0 .97.97 0 0 1 0-1.363" style="clip-rule:evenodd;fill:#df5206;fill-rule:evenodd;stroke-width:.38221318"/><path d="M22.357 28.933 8.558 15.134a.969.969 0 0 1 .002-1.366.97.97 0 0 1 1.362.002l13.8 13.799a.967.967 0 0 1 0 1.362.97.97 0 0 1-1.365.003m2.768-2.687L13.658 14.779a.967.967 0 0 1 0-1.364.97.97 0 0 1 1.363 0l11.467 11.469a.968.968 0 0 1 0 1.363.969.969 0 0 1-1.363 0m2.797-2.657-8.902-8.903a.966.966 0 0 1-.001-1.363.972.972 0 0 1 1.364 0l8.903 8.902a.97.97 0 0 1-.001 1.364.97.97 0 0 1-1.363 0M18.546 29.398v-.003s-.177.19-.416.507c-.008.013-.018.024-.027.036-.512.693-1.307 2.01-1.472 3.736-.246 2.579.834 4.081.834 4.081s-.138-1.524.624-2.444a3.76 3.76 0 0 1 .557-.551 3.747 3.747 0 0 0 2.583 1.037 3.757 3.757 0 0 0 2.884-1.344c.55-.654-4.884-5.75-5.567-5.055" style="clip-rule:evenodd;fill:#6a7029;fill-rule:evenodd;stroke-width:.38221318"/></svg>