<?xml version="1.0" encoding="UTF-8" standalone="no"?>
<svg
   xmlns:dc="http://purl.org/dc/elements/1.1/"
   xmlns:cc="http://creativecommons.org/ns#"
   xmlns:rdf="http://www.w3.org/1999/02/22-rdf-syntax-ns#"
   xmlns:svg="http://www.w3.org/2000/svg"
   xmlns="http://www.w3.org/2000/svg"
   width="180"
   height="180"
   viewBox="0 0 50.799999 50.799999"
   version="1.1"
   id="svg8">
  <defs
     id="defs2" />
  <metadata
     id="metadata5">
    <rdf:RDF>
      <cc:Work
         rdf:about="">
        <dc:format>image/svg+xml</dc:format>
        <dc:type
           rdf:resource="http://purl.org/dc/dcmitype/StillImage" />
        <dc:title></dc:title>
      </cc:Work>
    </rdf:RDF>
  </metadata>
  <g
     id="layer1"
     transform="translate(-79.6,-123.1)">
    <circle
       style="fill:#231f20;fill-opacity:1;stroke:none;stroke-width:1.04588234;stroke-miterlimit:4;stroke-dasharray:none"
       id="path4673"
       cx="105"
       cy="148.5"
       r="25.4" />
    <path
       id="path11"
       style="clip-rule:evenodd;fill:#df5206;fill-rule:evenodd;stroke-width:0.38221318"
       d="m 104.66052,153.75707 15.37118,-15.37118 c 0.37625,-0.37538 0.99023,-0.37495 1.36734,8.8e-4 0.37107,0.3715 0.37193,0.98893 -0.001,1.36302 l -15.37334,15.37118 c -0.37322,0.37495 -0.98893,0.37495 -1.36086,0.002 -0.37495,-0.37409 -0.37581,-0.99109 -0.003,-1.36561 m 2.72658,2.72791 13.00111,-13.00025 c 0.37495,-0.37451 0.9885,-0.37581 1.36388,0 0.37323,0.37366 0.37236,0.98937 -10e-4,1.36345 l -13.00039,12.99938 c -0.3728,0.37366 -0.98764,0.37539 -1.36216,0.001 -0.37452,-0.37538 -0.37452,-0.99065 -10e-4,-1.36388 m 2.72647,2.72677 10.36524,-10.36439 c 0.37538,-0.37451 0.98894,-0.37581 1.36431,-0.002 0.37194,0.37366 0.3728,0.99066 -0.002,1.36561 l -10.36352,10.36439 c -0.37365,0.37408 -0.98979,0.37408 -1.36388,-10e-4 -0.37279,-0.37323 -0.37279,-0.98894 -4.2e-4,-1.36259" />
    <path
       id="path17"
       style="clip-rule:evenodd;fill:#6a7029;fill-rule:evenodd;stroke-width:0.38221318"
       d="m 101.95735,152.03291 -13.798895,-13.7989 c -0.375812,-0.37581 -0.374949,-0.98979 0.0013,-1.36647 0.371066,-0.37106 0.988934,-0.37193 1.362588,0.002 l 13.798897,13.79933 c 0.37409,0.37322 0.37409,0.9898 8.8e-4,1.36173 -0.37409,0.37581 -0.99152,0.37581 -1.36475,0.003 m 2.76787,-2.68703 -11.467652,-11.46766 c -0.374517,-0.37495 -0.375812,-0.9885 0,-1.36388 0.373223,-0.37366 0.989796,-0.37279 1.363019,4.2e-4 l 11.467653,11.46809 c 0.37366,0.37365 0.37495,0.98764 0,1.36302 -0.37408,0.37365 -0.99022,0.37365 -1.36302,0 m 2.79724,-2.657 -8.902561,-8.90255 c -0.375812,-0.37581 -0.376675,-0.98894 -0.0013,-1.36345 0.372792,-0.37236 0.990228,-0.37323 1.364314,0 l 8.902987,8.90255 c 0.37366,0.37409 0.37366,0.9898 -8.8e-4,1.36432 -0.37322,0.37279 -0.98979,0.37279 -1.36259,-8.8e-4" />
    <path
       id="path19"
       d="m 98.146163,152.49847 -4.2e-4,-0.003 c 0,0 -0.176904,0.18898 -0.415508,0.50655 -0.0082,0.0125 -0.01855,0.0237 -0.02675,0.0362 -0.512588,0.69251 -1.307359,2.00937 -1.472613,3.73612 -0.24637,2.57847 0.834466,4.08086 0.834466,4.08086 0,0 -0.138502,-1.52439 0.623477,-2.44429 0.188553,-0.22782 0.377969,-0.40861 0.557461,-0.55099 0.674822,0.63815 1.58005,1.03683 2.582794,1.03683 1.15763,0 2.1923,-0.52165 2.88395,-1.34404 0.54969,-0.65367 -4.884268,-5.75021 -5.566856,-5.05468"
       style="clip-rule:evenodd;fill:#6a7029;fill-rule:evenodd;stroke-width:0.38221318" />
  </g>
</svg>
