<?xml version="1.0" encoding="UTF-8" standalone="no"?>
<svg
   xmlns:dc="http://purl.org/dc/elements/1.1/"
   xmlns:cc="http://creativecommons.org/ns#"
   xmlns:rdf="http://www.w3.org/1999/02/22-rdf-syntax-ns#"
   xmlns:svg="http://www.w3.org/2000/svg"
   xmlns="http://www.w3.org/2000/svg"
   version="1.1"
   id="Layer_1"
   x="0px"
   y="0px"
   width="459.22192"
   height="64.65519"
   viewBox="0 0 459.22192 64.65519"
   enable-background="new 0 0 113.386 113.386"
   xml:space="preserve"><metadata
     id="metadata25"><rdf:RDF><cc:Work
         rdf:about=""><dc:format>image/svg+xml</dc:format><dc:type
           rdf:resource="http://purl.org/dc/dcmitype/StillImage" /><dc:title></dc:title></cc:Work></rdf:RDF></metadata><defs
     id="defs23" /><g
     transform="translate(-19.199802,-31.672778)"
     id="g4192"><path
       style="clip-rule:evenodd;fill:#df5206;fill-rule:evenodd"
       d="M 77.380017,92.02594 104.49903,64.909181 c 0.98213,-0.979866 2.58739,-0.983252 3.56951,-0.0045 0.9731,0.977608 0.97535,2.591902 -0.005,3.572896 l -27.114504,27.11676 c -0.977607,0.978736 -2.589644,0.978736 -3.568381,-0.0034 -0.975349,-0.976479 -0.975349,-2.587386 -0.0011,-3.564994"
       id="path7" /><path
       style="clip-rule:evenodd;fill:#df5206;fill-rule:evenodd"
       d="m 70.245513,84.892565 34.015327,-34.01307 c 0.98099,-0.979866 2.58626,-0.983252 3.56838,0 0.97648,0.977607 0.97422,2.588515 -0.003,3.567252 L 73.812765,88.457559 c -0.97535,0.977608 -2.584,0.982123 -3.563866,0.0034 -0.979865,-0.982123 -0.979865,-2.591902 -0.0034,-3.568381"
       id="path9" /><path
       style="clip-rule:evenodd;fill:#df5206;fill-rule:evenodd"
       d="m 63.111009,77.754674 40.216251,-40.21625 c 0.98438,-0.982123 2.59077,-0.980994 3.57741,0.0023 0.97084,0.971963 0.97309,2.587386 -0.003,3.566123 l -40.22189,40.21625 c -0.976479,0.980994 -2.587387,0.980994 -3.560479,0.0045 -0.980994,-0.978737 -0.983252,-2.593031 -0.0079,-3.572897"
       id="path11" /><path
       style="clip-rule:evenodd;fill:#6a7029;fill-rule:evenodd"
       d="M 70.598851,59.263666 47.306728,35.971543 c -0.983252,-0.983253 -0.98551,-2.587387 -0.0034,-3.567252 0.97535,-0.974221 2.590773,-0.976479 3.56951,0 L 74.16609,55.696414 c 0.977608,0.978736 0.977608,2.589644 -0.0023,3.56951 -0.976478,0.975349 -2.589644,0.975349 -3.564994,-0.0023"
       id="path13" /><path
       style="clip-rule:evenodd;fill:#6a7029;fill-rule:evenodd"
       d="M 63.28034,66.215292 33.277042,36.211993 c -0.979865,-0.980994 -0.983252,-2.586257 0,-3.56838 0.976479,-0.977608 2.589644,-0.97535 3.566123,0.0011 l 30.003298,30.004428 c 0.977608,0.977607 0.980995,2.583999 0,3.566123 -0.978736,0.977607 -2.590773,0.977607 -3.566123,0"
       id="path15" /><path
       style="clip-rule:evenodd;fill:#6a7029;fill-rule:evenodd"
       d="M 56.038593,73.243681 19.935971,37.141059 c -0.983252,-0.983252 -0.980994,-2.589644 0.0034,-3.575154 0.970834,-0.970834 2.587387,-0.973092 3.564994,0.0045 l 36.102622,36.10375 c 0.978736,0.976479 0.978736,2.589645 0.0023,3.562737 -0.978737,0.983252 -2.59416,0.983252 -3.570639,0.0068"
       id="path17" /><path
       style="clip-rule:evenodd;fill:#6a7029;fill-rule:evenodd"
       d="m 46.067221,74.46174 -0.0011,-0.0068 c 0,0 -0.46284,0.494448 -1.087109,1.325302 -0.02145,0.03274 -0.04854,0.06209 -0.06999,0.09483 -1.341106,1.811848 -3.420498,5.257181 -3.852858,9.774947 -0.644589,6.746171 2.183248,10.676921 2.183248,10.676921 0,0 -0.362369,-3.988323 1.631228,-6.395089 0.493319,-0.596047 0.988896,-1.069047 1.458509,-1.441577 1.765564,1.66961 4.133949,2.712692 6.757459,2.712692 3.028778,0 5.735825,-1.364812 7.545415,-3.516452 C 62.070184,85.976287 47.853105,72.641989 46.067221,74.46174"
       id="path19" /></g><g
     id="text4177"
     style="font-style:normal;font-weight:normal;font-size:50.78902054px;line-height:125%;font-family:Nunito;letter-spacing:-1.26972556px;word-spacing:0px;fill:#df5206;fill-opacity:1;stroke:none;stroke-width:1px;stroke-linecap:butt;stroke-linejoin:miter;stroke-opacity:1"
     transform="scale(0.99931777,1.0006827)"><path
       id="path4184"
       style="font-style:normal;font-variant:normal;font-weight:bold;font-stretch:normal;font-family:Nunito;-inkscape-font-specification:'Nunito Bold';letter-spacing:-1.26972556px"
       d="m 111.21856,64.46228 q 1.43836,0 2.50473,-1.016772 1.06637,-1.016772 1.06637,-2.628729 l 0,-13.98682 13.24284,15.325984 q 0.61998,0.768779 0.99197,1.165568 0.37199,0.396789 0.96718,0.768779 0.59518,0.347191 1.16557,0.347191 l 0.0496,0 q 1.36397,0 2.43034,-0.967174 1.09117,-0.967174 1.09117,-2.306337 0,-1.314364 -0.96718,-2.628729 L 122.13026,45.565194 132.59558,34.231901 q 0.96717,-1.165568 0.96717,-2.405534 0,-1.289565 -1.01677,-2.182341 -1.01677,-0.917575 -2.30634,-0.917575 -1.33916,0 -2.90152,1.934347 l -12.54846,14.259613 0,-12.573258 q 0,-1.636756 -1.06637,-2.653528 -1.06637,-1.016773 -2.50473,-1.016773 -1.43836,0 -2.50474,1.016773 -1.04157,1.016772 -1.04157,2.653528 l 0,28.469626 q 0,1.636756 1.04157,2.653528 1.04158,0.991973 2.50474,0.991973 z" /><path
       id="path4186"
       style="font-style:normal;font-variant:normal;font-weight:bold;font-stretch:normal;font-family:Nunito;-inkscape-font-specification:'Nunito Bold';letter-spacing:-1.26972556px"
       d="m 143.47752,64.46228 18.3763,0 q 1.19037,0 1.88475,-0.818377 0.71918,-0.843178 0.71918,-1.959147 0,-1.11597 -0.71918,-1.959147 -0.69438,-0.843177 -1.88475,-0.843177 l -14.8052,0 0,-9.94453 13.26764,0 q 1.21517,0 1.93435,-0.818378 0.74398,-0.818378 0.74398,-1.934347 0,-1.11597 -0.71918,-1.934348 -0.71918,-0.818378 -1.95915,-0.818378 l -13.26764,0 0,-9.126152 14.23482,0 q 1.21516,0 1.93435,-0.843177 0.71918,-0.843177 0.71918,-1.959147 0,-1.115969 -0.71918,-1.959146 -0.71919,-0.843177 -1.93435,-0.843177 l -17.63232,0 q -1.76076,0 -2.72793,1.190367 -0.94237,1.165569 -0.94237,3.000719 l 0,27.576851 q 0,1.562357 1.01677,2.777524 1.01677,1.215167 2.47993,1.215167 z" /><path
       id="path4188"
       style="font-style:normal;font-variant:normal;font-weight:bold;font-stretch:normal;font-family:Nunito;-inkscape-font-specification:'Nunito Bold';letter-spacing:-1.26972556px"
       d="m 190.0705,51.442634 -12.25087,0 6.12543,-16.342756 6.12544,16.342756 z m 4.01749,10.738108 q 0.42159,1.215167 1.28956,1.83515 0.86798,0.595184 1.93435,0.595184 1.33917,0 2.38074,-0.892776 1.04157,-0.892775 1.04157,-2.256738 0,-0.619983 -0.24799,-1.264766 l -10.88691,-27.25446 q -1.04157,-2.752725 -2.40553,-3.695099 -1.33917,-0.942375 -3.24872,-0.942375 -1.90954,0 -3.27351,0.942375 -1.33916,0.942374 -2.38073,3.695099 l -10.88691,27.25446 q -0.24799,0.644783 -0.24799,1.264766 0,1.363963 1.04157,2.256738 1.04157,0.892776 2.38074,0.892776 1.06637,0 1.93435,-0.595184 0.86797,-0.619983 1.28956,-1.83515 l 2.23194,-5.951838 15.82197,0 2.23194,5.951838 z" /></g><g
     id="text4181"
     style="font-style:normal;font-weight:normal;font-size:50.54747772px;line-height:125%;font-family:Nunito;letter-spacing:0px;word-spacing:0px;fill:#6a7029;fill-opacity:1;stroke:none;stroke-width:1px;stroke-linecap:butt;stroke-linejoin:miter;stroke-opacity:1"><path
       id="path4167"
       style="font-style:normal;font-variant:normal;font-weight:normal;font-stretch:normal;font-family:Nunito;-inkscape-font-specification:Nunito;letter-spacing:-1.89553046px;fill:#6a7029;fill-opacity:1"
       d="m 217.87747,60.089132 0,-27.346975 5.55331,0 q 7.33037,0 10.7364,3.159217 3.40603,3.159217 3.40603,10.51427 0,3.480076 -0.69107,5.972896 -0.69108,2.468138 -2.24601,4.245198 -1.53025,1.752378 -4.09711,2.616227 -2.56686,0.839167 -6.26907,0.839167 l -6.39248,0 z m -2.49282,3.949022 8.63848,0 q 8.95935,0 13.84626,-4.492012 4.88692,-4.516694 4.88692,-13.056453 0,-8.663167 -4.83756,-13.17986 -4.83755,-4.541375 -14.11775,-4.541375 l -8.41635,0 q -1.03662,0 -1.77706,0.71576 -0.71576,0.691079 -0.71576,1.703015 l 0,30.432149 q 0,1.011937 0.71576,1.727697 0.74044,0.691079 1.77706,0.691079 z" /><path
       id="path4169"
       style="font-style:normal;font-variant:normal;font-weight:normal;font-stretch:normal;font-family:Nunito;-inkscape-font-specification:Nunito;letter-spacing:-1.89553046px;fill:#6a7029;fill-opacity:1"
       d="m 272.97126,62.631315 q 0.61703,1.628971 2.27069,1.628971 0.96257,0 1.72769,-0.617034 0.76513,-0.617035 0.76513,-1.554928 0,-0.394902 -0.19745,-0.913211 L 265.81366,32.075759 q -0.83917,-2.097917 -1.82643,-2.764315 -0.96257,-0.691079 -2.41877,-0.691079 -1.4562,0 -2.44346,0.691079 -0.96257,0.666398 -1.80174,2.764315 L 245.5996,61.175113 q -0.19745,0.518309 -0.19745,0.913211 0,0.937893 0.74044,1.554928 0.76513,0.617034 1.7277,0.617034 1.67833,0 2.29537,-1.628971 l 2.9124,-7.503141 16.9808,0 2.9124,7.503141 z m -4.31924,-11.081942 -14.16712,0 7.08356,-18.239544 7.08356,18.239544 z" /><path
       id="path4171"
       style="font-style:normal;font-variant:normal;font-weight:normal;font-stretch:normal;font-family:Nunito;-inkscape-font-specification:Nunito;letter-spacing:-1.89553046px;fill:#6a7029;fill-opacity:1"
       d="m 291.88214,64.112198 q 1.01194,0 1.75238,-0.641716 0.74044,-0.641716 0.74044,-1.752379 l 0,-28.901902 9.18147,0 q 0.96258,0 1.50557,-0.592353 0.54299,-0.592354 0.54299,-1.406839 0,-0.814486 -0.54299,-1.382158 -0.51831,-0.592353 -1.50557,-0.592353 l -23.47199,0 q -0.96258,0 -1.50557,0.592353 -0.54299,0.592353 -0.54299,1.382158 0,0.814485 0.54299,1.406839 0.54299,0.592353 1.50557,0.592353 l 9.30488,0 0,28.901902 q 0,1.110663 0.74044,1.752379 0.74044,0.641716 1.75238,0.641716 z" /><path
       id="path4173"
       style="font-style:normal;font-variant:normal;font-weight:normal;font-stretch:normal;font-family:Nunito;-inkscape-font-specification:Nunito;letter-spacing:-1.89553046px;fill:#6a7029;fill-opacity:1"
       d="m 333.3518,62.631315 q 0.61704,1.628971 2.27069,1.628971 0.96257,0 1.7277,-0.617034 0.76512,-0.617035 0.76512,-1.554928 0,-0.394902 -0.19745,-0.913211 L 326.1942,32.075759 q -0.83917,-2.097917 -1.82642,-2.764315 -0.96258,-0.691079 -2.41878,-0.691079 -1.4562,0 -2.44346,0.691079 -0.96257,0.666398 -1.80174,2.764315 l -11.72365,29.099354 q -0.19746,0.518309 -0.19746,0.913211 0,0.937893 0.74045,1.554928 0.76512,0.617034 1.72769,0.617034 1.67834,0 2.29537,-1.628971 l 2.9124,-7.503141 16.9808,0 2.9124,7.503141 z m -4.31924,-11.081942 -14.16712,0 7.08356,-18.239544 7.08356,18.239544 z" /><path
       id="path4175"
       style="font-style:normal;font-variant:normal;font-weight:normal;font-stretch:normal;font-family:Nunito;-inkscape-font-specification:Nunito;letter-spacing:-1.89553046px;fill:#6a7029;fill-opacity:1"
       d="m 347.07959,44.046231 0,-11.378118 7.25632,0 q 1.35748,0 2.34474,0.123407 1.01193,0.09873 2.02387,0.419583 1.01194,0.320858 1.65365,0.88853 0.64172,0.567672 1.03662,1.530246 0.41958,0.962574 0.41958,2.295369 0,3.257943 -1.92514,4.689463 -1.90047,1.43152 -6.07163,1.43152 l -6.73801,0 z m 0,16.190989 0,-12.365374 6.19502,0 q 5.03501,0 7.35506,1.308114 2.32005,1.308113 2.32005,4.862233 0,3.603482 -1.87579,4.911595 -1.8511,1.283432 -6.02226,1.283432 l -7.97208,0 z m -2.49282,3.874978 11.47684,0 q 3.01113,0 5.38054,-0.789804 2.36942,-0.789805 3.77625,-2.1226 1.43153,-1.357476 2.17197,-3.011129 0.74044,-1.678334 0.74044,-3.529438 0,-3.92434 -2.29537,-6.170346 -2.27069,-2.270688 -6.29375,-2.714953 l 0,-0.09872 q 3.43071,-0.444265 5.25713,-2.66559 1.85111,-2.221325 1.85111,-5.380542 0,-4.171154 -2.96177,-6.466523 -2.96177,-2.32005 -9.1568,-2.32005 l -9.94659,0 q -1.01194,0 -1.7277,0.691079 -0.71576,0.691078 -0.71576,1.703015 l 0,30.481511 q 0,0.987256 0.71576,1.703016 0.71576,0.691079 1.7277,0.691079 z" /><path
       id="path4177"
       style="font-style:normal;font-variant:normal;font-weight:normal;font-stretch:normal;font-family:Nunito;-inkscape-font-specification:Nunito;letter-spacing:-1.89553046px;fill:#6a7029;fill-opacity:1"
       d="m 397.38519,62.631315 q 0.61703,1.628971 2.27069,1.628971 0.96257,0 1.72769,-0.617034 0.76513,-0.617035 0.76513,-1.554928 0,-0.394902 -0.19746,-0.913211 L 390.22759,32.075759 q -0.83917,-2.097917 -1.82643,-2.764315 -0.96257,-0.691079 -2.41877,-0.691079 -1.4562,0 -2.44346,0.691079 -0.96257,0.666398 -1.80174,2.764315 l -11.72366,29.099354 q -0.19745,0.518309 -0.19745,0.913211 0,0.937893 0.74044,1.554928 0.76512,0.617034 1.7277,0.617034 1.67833,0 2.29537,-1.628971 l 2.9124,-7.503141 16.98079,0 2.91241,7.503141 z m -4.31924,-11.081942 -14.16712,0 7.08356,-18.239544 7.08356,18.239544 z" /><path
       id="path4179"
       style="font-style:normal;font-variant:normal;font-weight:normal;font-stretch:normal;font-family:Nunito;-inkscape-font-specification:Nunito;letter-spacing:-1.89553046px;fill:#6a7029;fill-opacity:1"
       d="m 417.50545,64.655188 q 6.12099,0 9.6751,-2.690271 3.57881,-2.690271 3.57881,-7.527822 0,-1.999193 -0.61704,-3.529438 -0.59235,-1.530246 -1.82642,-2.616227 -1.20939,-1.110663 -2.71495,-1.875786 -1.48089,-0.765123 -3.62817,-1.456201 l -7.10824,-2.295369 q -2.5175,-0.839167 -3.67752,-1.974511 -1.13535,-1.160025 -1.13535,-3.085173 0,-2.566864 2.22133,-3.924341 2.22132,-1.357476 5.92353,-1.357476 2.59155,0 4.86223,0.839167 2.29537,0.814486 3.80094,1.801741 0.51831,0.34554 1.08598,0.34554 0.7898,0 1.35747,-0.617035 0.56768,-0.617034 0.56768,-1.382157 0,-0.740442 -0.56768,-1.23407 -1.67833,-1.505564 -4.86223,-2.616227 -3.15922,-1.135343 -6.63929,-1.135343 -3.55412,0 -6.39248,1.110662 -2.81368,1.110662 -4.49201,3.282624 -1.65366,2.171962 -1.65366,5.035003 0,3.55412 1.92515,5.577993 1.92515,2.023874 5.84949,3.356669 l 7.08356,2.369413 q 1.57961,0.54299 2.56686,1.011936 0.98726,0.468947 1.75238,1.160026 0.78981,0.691078 1.11066,1.628971 0.34554,0.913211 0.34554,2.221325 0,2.714952 -2.29537,4.146473 -2.27068,1.43152 -5.87417,1.43152 -5.52863,0 -9.72446,-3.257943 -0.2715,-0.197451 -0.61704,-0.197451 -0.76512,0 -1.53024,0.839167 -0.74044,0.839167 -0.74044,1.628971 0,0.468947 0.29617,0.740442 4.56606,4.245198 12.09388,4.245198 z" /><path
       id="path4181"
       style="font-style:normal;font-variant:normal;font-weight:normal;font-stretch:normal;font-family:Nunito;-inkscape-font-specification:Nunito;letter-spacing:-1.89553046px;fill:#6a7029;fill-opacity:1"
       d="m 438.4402,64.112198 18.80721,0 q 0.9379,0 1.45621,-0.567672 0.51831,-0.592353 0.51831,-1.406839 0,-0.814486 -0.51831,-1.406839 -0.51831,-0.592353 -1.45621,-0.592353 l -16.28971,0 0,-12.217286 14.80883,0 q 0.93789,0 1.4562,-0.567672 0.54299,-0.592353 0.54299,-1.382158 0,-0.789804 -0.51831,-1.357476 -0.5183,-0.567672 -1.48088,-0.567672 l -14.80883,0 0,-11.23003 15.648,0 q 0.93789,0 1.4562,-0.592353 0.51831,-0.592354 0.51831,-1.406839 0,-0.814486 -0.51831,-1.382158 -0.51831,-0.592353 -1.4562,-0.592353 l -18.28891,0 q -0.98725,0 -1.67833,0.740441 -0.6664,0.715761 -0.6664,1.678335 l 0,30.432148 q 0,0.962574 0.74044,1.703016 0.76512,0.71576 1.7277,0.71576 z" /></g></svg>