<?xml version="1.0" encoding="UTF-8" standalone="no"?>
<svg
   id="svg882"
   version="1.1"
   fill="none"
   viewBox="0 0 1440 540"
   height="540"
   width="1440"
   xml:space="preserve"
   xmlns="http://www.w3.org/2000/svg"
   xmlns:svg="http://www.w3.org/2000/svg"
   xmlns:rdf="http://www.w3.org/1999/02/22-rdf-syntax-ns#"
   xmlns:cc="http://creativecommons.org/ns#"
   xmlns:dc="http://purl.org/dc/elements/1.1/"><metadata
     id="metadata886"><rdf:RDF><cc:Work
         rdf:about=""><dc:format>image/svg+xml</dc:format><dc:type
           rdf:resource="http://purl.org/dc/dcmitype/StillImage" /></cc:Work></rdf:RDF></metadata><defs
     id="defs880" /><path
     id="path389"
     style="stroke:#d7c9a7;fill:none;stroke-width:3;stroke-dasharray:none;stroke-linejoin:round;stroke-linecap:round;stroke-opacity:1"
     d="M 163.71857,1.8644959 C 157.12722,3.6726978 150.69471,5.3627724 144.76586,7.1842951 127.6554,12.441187 108.07835,19.443462 94.769764,31.472869 c -3.995236,3.611263 -8.715576,8.818061 -7.595826,14.783203 0.852539,4.542049 7.426274,7.194887 11.591919,7.830262 12.214463,1.862974 25.802863,1.243467 38.000003,-0.362671 34.27267,-4.513118 68.60672,-9.30762 103,-12.594116 15.84995,-1.514525 36.33118,-2.639029 49.9414,6.637329 6.27587,4.277462 5.05188,25.424812 7.21375,33.532409 8.27257,31.023955 30.35107,59.312895 34.84411,91.000005 0.80506,5.67748 1.50513,11.88256 -2.69836,16.58105 -1.97693,2.20984 -10.37976,3.94452 -8.9552,8.01849 1.66077,4.74952 16.38269,5.55872 20.6543,7.09955 10.96703,3.956 14.82948,11.28273 21,20.30091 3.38464,-9.56488 -1.10351,-20.56624 3.91894,-30 3.12378,-5.86749 15.49573,-10.81026 14.62964,-18.0008 -0.69519,-5.77178 -7.60754,-8.11542 -11.33557,-11.52777 -3.42908,-3.13867 -5.51636,-8.05719 -6.72302,-12.47143 -5.67211,-20.75066 -3.66724,-42.92074 -1.65979,-64.000005 1.49853,-15.734786 2.479,-31.823928 7.38659,-47 3.52771,-10.908985 13.68007,-15.371653 18.98768,-25 2.68363,-4.868244 4.78759,-9.8296016 6.67178,-14.7960873 m 295.82605,0.036724 c -6.9477,16.8743027 -18.50928,33.5525587 -28.8721,44.7447157 -6.09716,6.585137 -13.438,10.626653 -20.82947,15.454468 -2.49585,1.630125 -6.36499,4.039859 -6.36499,7.459106 0,5.153315 17.30823,8.194705 21.36426,11.005371 13.34117,9.244925 22.67628,25.523138 29.13806,40.095708 3.18115,7.17418 6.70508,15.0138 6.80713,23 0.12073,9.45378 -9.58068,14.68787 2.05554,21.4707 12.93908,7.54229 23.24744,4.58061 26.95605,-10.4707 3.65064,-14.81597 0.42444,-29.99246 1.08252,-45 0.78797,-17.966784 6.95705,-37.880147 16.65284,-53.000005 11.64794,-18.163983 25.70301,-33.243059 39.10803,-49.9999996 0.9737,-1.217182 2.25128,-2.67771 3.63227,-4.2922142 M 215.02876,1.9816971 c -1.71489,1.2504434 -3.47926,2.3997359 -5.2624,3.4410624 -11.51244,6.7230765 -24.1476,10.2360285 -36,16.1242065 -2.92945,1.455321 -10.74756,4.135868 -10.07874,8.48999 0.42151,2.744199 4.89942,3.56836 7.07874,3.936707 7.37291,1.246093 15.53516,0.325622 23,0.325622 18.82432,0 37.57643,-3.057316 56,-6.800903 12.67211,-2.574948 26.46912,-6.669428 39,-0.66748 11.52208,5.518792 20.19337,14.803173 25.48218,26.468383 5.61144,12.376941 6.46412,22.371653 16.51782,32 18.38523,-14.819931 24.74891,-38.246604 32,-60 2.67466,-8.023925 5.5288,-16.037311 8.67611,-23.9360577 m 332.09929,0.2135384 c -7.14341,19.0948693 -18.63065,37.0551423 -20.6056,57.7225193 -0.85157,8.911185 0.396,17.482367 6.87341,23.956787 2.06641,2.065428 5.4895,5.685546 8.72913,4.621155 3.70849,-1.218383 3.84607,-7.392215 4.29248,-10.577942 1.0813,-7.717521 5.9292,-14.823065 10.3634,-21 13.42661,-18.703727 29.95799,-33.297373 38.89881,-54.38172 M 1112.0074,1.5833372 c 1.4628,2.5345959 3.3163,4.9000423 4.3354,7.7159482 3.174,8.7711706 -1.3616,19.3459556 -5.6157,26.9999996 -2.8809,5.183345 -13.9502,20.469853 -3.9021,24.392701 4.9951,1.950132 11.7597,-1.666995 15.9414,-4.149659 11.0236,-6.544487 19.2109,-17.012154 29,-24.72528 24.1435,-19.023663 60.841,-29.1119961 92,-25.3333134 27.2714,3.3072477 47.2399,26.9079234 55.3286,51.8155514 3.3005,10.163565 1.1316,27.406504 3.6714,36 4.5146,-5.490351 6.7587,-12.120609 13.0039,-16.297058 3.8772,-2.593014 11.2175,-1.378911 12.5224,-6.750793 1.9732,-8.122612 -6.0522,-16.206064 -4.2478,-24.951355 0.8482,-4.110958 9.5869,-9.214848 8.3758,-12.737671 -1.4439,-4.19891 -10.316,-3.086245 -13.6351,-4.696777 -6.0468,-2.934263 -5.8161,-11.699286 -4.4907,-17.566346 0.7629,-3.3769066 1.7637,-6.6703049 2.9285,-9.9075371 M 141.26921,1.6825109 C 128.51209,5.1677938 115.49824,7.4860914 103.76636,9.0099177 95.608284,10.069518 87.660759,6.3554709 79.766357,8.6001587 70.059947,11.360043 53.925048,24.808177 53.049561,35.298462 c -0.585815,7.01928 6.629154,5.876773 10.672851,8.604187 4.247433,2.864743 6.260499,8.459844 6.859497,13.396606 1.200439,9.893728 -4.200677,24.055124 1.324097,32.866516 4.034176,6.434077 12.208135,1.864133 16.860351,-1.325622 13.179313,-9.036185 25.386003,-22.83045 41.000003,-28.450623 12.05419,-4.338802 13.28883,2.332524 23.0393,6.320984 5.57824,2.281798 13.08852,0.655091 18.9607,0.5849 35.61019,-0.425842 93.38564,-27.68605 111.10962,18.003845 2.88379,7.434014 0.8529,18.063365 0.89111,26.000005 0.0741,15.3574 2.45057,33.12806 11.34802,45.9992 2.66016,3.84815 18.59911,13.52869 13.28943,18.3974 -4.13635,3.79285 -14.55311,1.86548 -19.63818,1.64276 -16.08214,-0.70428 -31.93777,-1.92071 -48,0.24305 -4.3302,0.58331 -20.70117,2.00965 -19.96302,8.66821 0.91272,8.23314 23.50465,13.27423 29.96302,15.37964 24.21751,7.89488 69.38794,16.71676 68.99609,49.66974 -0.31116,26.16415 -32.7134,32.57629 -52.99609,35.57873 -5.64379,0.83545 -26.36426,2.11604 -26.36426,10.34644 0,6.50444 13.65735,9.83892 18.36426,11.40814 13.42894,4.47711 27.41651,9.38484 38.99926,17.70685 4.68384,3.36523 10.74537,8.72156 10.89808,14.95984 0.51452,21.01493 -38.834,23.7312 -52.89734,27.7099 -4.11292,1.16357 -17.24024,3.1341 -18.07874,8.39501 -0.55676,3.49354 5.86182,4.86066 8.07874,6.0301 4.48291,2.36474 9.23877,5.97784 11.10644,10.86499 1.98999,5.2072 -0.62352,12.93792 6.8982,14.13812 13.04564,2.0816 25.93604,-13.82091 39.99536,-8.12885 8.28307,3.35346 13.18896,13.27162 16.57483,20.99073 8.06749,18.39243 22.37511,45.96516 12.10107,66 -8.80364,17.16743 -34.92356,28.38188 -27.18809,51.05529 m -184.04316,0.23104 c 0.35276,-0.75416 0.69682,-1.51573 1.02983,-2.28633 6.49487,-15.02928 8.74463,-32.83291 6.81104,-49 -1.74951,-14.62847 -3.50062,-30.3658 -9.59802,-44 -1.9093,-4.26941 -4.78529,-12.63099 -10.59803,-12.33796 -5.95079,0.29999 -9.381344,11.62262 -10.809443,16.33796 -5.638178,18.616 -11.747326,37.70851 -22.613404,54 -7.243889,10.86083 -18.033704,20.052 -30.666626,24.25158 -5.003168,1.66321 -20.578859,1.59083 -22.743896,7.02625 -0.743023,1.86528 0.292629,3.93809 1.763666,5.92517 M 1083.4028,1.6028827 c 1.9682,7.2341895 9.6534,12.8011333 7.7911,20.6963723 -1.9743,8.370232 -10.8668,12.225044 -15.3186,19.000794 -5.6088,8.536917 -5.4992,19.181467 -5.0695,28.999206 0.6471,14.788254 5.7495,43.635135 25.9599,42.166685 7.4396,-0.54059 7.9126,-7.99451 10.8001,-13.166685 3.6803,-6.5924 8.9052,-11.761662 14.2007,-16.996154 24.1051,-23.827796 54.1118,-48.389296 86,-61.138855 12.8419,-5.134517 35.3139,-5.685415 45.9096,4.32019 6.8215,6.441583 9.8496,16.042001 12.3814,24.814819 5.6581,19.607341 10.4012,43.677019 -3.4654,61.000005 -6.9943,8.73784 -16.9715,14.01594 -25.8256,20.88812 -2.7132,2.10571 -8.2698,5.83264 -7.2486,9.89892 1.0514,4.18732 8.7561,7.38745 11.4485,11.21375 6.8156,9.68621 6.0449,26.87989 17.804,32.68133 5.5843,2.75513 12.9887,0.92603 18.9961,1.41126 6.0099,0.48541 11.8874,3.31183 17,6.35956 19.8238,11.81761 34.9257,32.64845 47.9746,51.54706 6.3719,9.22844 17.4824,22.19269 17.7361,34 0.1476,6.87077 -6.4274,12.09991 -11.7107,15.38116 -13.6412,8.47173 -29.2916,11.66157 -42,22.08337 -4.1109,3.37116 -14.1062,11.1374 -12.2886,17.47681 2.0326,7.08922 17.0791,3.8371 22.2886,3.21375 16.5326,-1.97828 32.3872,-7.107 49,-8.24457 5.776,-0.39551 13.7697,-1.51813 18.486,2.81714 3.6013,3.31024 2.0996,8.44366 0.24,12.27234 -3.7341,7.68791 -9.1477,15.96454 -7.4975,24.99615 1.058,5.79143 8.4989,8.48854 5.4489,15.00385 -3.9633,8.46617 -19.1931,13.58649 -14.7832,24.98535 7.9506,20.55119 27.5538,-1.18042 39.1058,1.15124 16.2062,3.27106 29.2036,32.00544 31.6743,46.86341 0.1412,0.84951 0.238,1.72947 0.2884,2.62692 m 0,0 c 0.089,1.58376 0.033,3.22202 -0.1781,4.84367 m 0,0 c -0.9305,7.13806 -4.8774,13.95442 -12.7846,14.38512 -5.9761,0.32544 -12.0961,-2.60748 -18,-3.4267 -4.6333,-0.64288 -16.2089,0.0779 -16.3789,6.6142 -0.1941,7.44921 12.1577,10.33985 13.1074,17.95679 1.1185,8.97203 -17.8484,18.05604 -11.9707,25.58105 6.6416,8.50287 28.6844,0.64173 33.144,12.37749 m -145.4763,0.23113 c -5.1431,-17.9665 -10.2114,-35.42084 -17.8645,-49.18967 -8.9216,-16.05107 -18.8514,-30.1161 -34.561,-39.94983 -5.4009,-3.3808 -14.7033,-9.29444 -20.9414,-4.64276 -4.6983,3.50329 -5.0296,11.11365 -5.0293,16.59259 8e-4,15.28489 6.4757,29.33388 4.7971,45 -1.4368,13.40839 -7.0623,23.77649 -16.5029,32.31409 M 895.29529,538.307 c 9.50095,-28.29184 22.14517,-55.50682 30.88469,-84.00774 3.40515,-11.10467 8.05969,-22.48445 9.71607,-34 0.43029,-2.9914 2.14502,-8.72309 -0.15735,-11.30713 -4.79248,-5.3789 -13.5979,6.49432 -16.14209,9.30713 -12.11901,13.39867 -25.07289,28.87367 -32.40271,46 -6.38342,14.91496 -6.28041,31.22962 -13.40821,46 -4.69549,9.73012 -10.26948,19.16631 -16.53054,28.24669 m -120.55404,-0.2797 c 18.1948,-17.39625 42.89698,-31.25213 55.08458,-51.96699 3.58838,-6.09912 -0.29504,-11.54597 -0.8457,-18 -0.52783,-6.18579 1.19739,-12.88612 2.09802,-19 4.62708,-31.40885 17.92749,-61.02713 19.13416,-93 0.62732,-16.62315 -2.22999,-36.63405 -11.11255,-51 -11.7932,-19.07341 -37.78539,-47.22048 -31.06946,-72 -6.65771,-3.0232 37.23705,-54.79712 30.77625,-52.67054 -12.39062,4.07831 -32.74672,10.27837 -44.89575,2.58179 -6.21752,-3.93884 -7.07142,-12.25074 -7.10352,-18.91125 -0.0757,-15.70067 4.23218,-29.72067 6.91516,-45 1.44873,-8.24993 3.73169,-18.70534 1.66516,-27.000005 -2.22424,-8.927725 -14.58019,-9.006052 -7.63891,-19 19.30614,-27.796447 48.77323,-48.712571 73.42784,-71.6553622 M 1062.1894,1.3534213 c 0.018,1.5918138 0.1924,3.2396434 0.6209,4.9458341 1.426,5.6774846 7.4104,9.9325006 6.6838,15.9999996 -1.0459,8.735648 -11.1049,10.433294 -16.5178,15.390442 -6.6157,6.058893 -7.9192,15.206185 -8.9245,23.609558 -3.4205,28.586275 8.1103,56.725675 5.5441,85.000005 -0.7314,8.05998 -1.1718,19.01093 -8.0146,24.48614 -6.3987,5.11974 -15.0845,2.71394 -18.1621,12.51386 -3.8367,12.21715 1.887,27.13025 0.061,40 -3.5293,24.88047 -15.6221,49.91451 -28.77916,71 -13.99511,22.42856 -34.84219,35.70027 -52.93128,54 -26.93588,27.24954 -53.87587,61.38314 -71.19519,96 -5.04308,10.07982 -9.95861,21.59461 -10.59875,33 -0.53882,9.60106 3.13391,17.33204 -0.29956,27 -5.45347,15.35614 -18.21067,23.66694 -29.56912,33.90572 m -66.14741,0.26644 c 20.09775,-16.72096 42.6682,-31.59815 56.56077,-53.17216 6.40392,-9.9447 -0.88977,-12.08241 -3.5802,-21.0008 -2.18091,-7.22954 -1.0564,-15.73017 0.4945,-22.9992 5.91589,-27.7277 20.54566,-52.51053 24.0448,-81 1.78052,-14.49627 -4.32727,-27.64107 -3.67444,-42 0.266,-5.85034 2.21375,-10.59217 6.05017,-15 1.95972,-2.25159 6.75696,-6.16565 5.48853,-9.68213 -1.52612,-4.23108 -19.05322,-2.50843 -23.578,-5.3125 -16.80601,-10.41479 -27.15063,-38.23373 -22.07251,-57.00537 8.28893,-30.64084 43.381,-49.46133 66.07251,-67.80323 4.69885,-3.79815 24.57666,-17.37415 20.7832,-24.68292 -3.56897,-6.87633 -24.59059,1.2721 -29.7832,3.00159 -22.468,7.48351 -43.22475,19.24854 -66,25.90893 -7.70788,2.25409 -19.37343,6.50384 -25.14588,-1.48224 -12.99852,-17.98319 -3.03185,-53.92786 11.14978,-67.927486 6.6289,-6.543816 19.3097,-10.517403 24.2345,-18.184448 7.72643,-12.028614 -27.64476,-7.987867 -19.63037,-20.827149 5.30785,-8.503226 17.41712,-12.600105 24.29858,-20.006897 5.66845,-6.101251 6.10498,-13.404243 10.24073,-19.981506 3.255,-5.17657 8.78956,-8.86243 13.85266,-12.1496584 3.14526,-2.0420507 6.59422,-3.9162386 10.17178,-5.750198 M 670.06408,1.5203953 C 665.05651,15.249461 656.13785,29.185201 645.76636,34.9505 c -7.44079,4.136166 -21.985,2.288338 -27.37732,8.91742 -3.04846,3.747555 2.32117,8.051762 0.17895,12.337952 -2.90454,5.811395 -17.56164,7.285102 -17.45593,13.976074 0.0829,5.245539 12.0127,6.360352 15.6543,7.120422 16.15061,3.37103 30.08387,13.050428 40.11181,25.996892 6.26806,8.09239 21.40674,24.87507 17.36585,36 -3.14392,8.6555 -11.91505,12.73041 -18.43286,18.46453 -2.29126,2.01575 -5.22559,5.05664 -3.19373,8.25769 4.03736,6.36053 23.13282,6.27179 30.14893,8.63349 18.96934,6.38524 45.14198,20.36397 54.73681,38.64429 11.68957,22.27115 -7.90614,40.41583 -28.73681,45.11187 -4.74195,1.06903 -23.43994,-1.01506 -23.1095,6.9784 0.32227,7.79302 17.29591,13.74859 23.1095,16.66284 17.11411,8.57909 39.23951,20.72914 45.09875,40.24689 5.64208,18.79435 -7.43325,48.05982 -26.09875,54.14965 -5.49877,1.79407 -23.99781,-3.2063 -26.86353,1.45374 -1.55371,2.52643 1.46814,5.67804 2.96851,7.39661 5.13463,5.88109 9.53015,11.28272 11.51697,19 4.58972,17.82706 -1.55531,38.81575 -11.08643,54 -7.77367,12.38445 -21.95852,25.78784 -37.53552,26.53002 -6.93005,0.33033 -22.51807,-9.50658 -27.39661,-4.08178 -5.60241,6.22997 3.1117,20.27711 -0.48389,28.54785 -4.1029,9.43761 -17.2163,9.20851 -20.51232,18.04407 -1.45017,3.88745 0.40742,7.44022 2.06719,11.1423 m -124.93702,0.0708 c -3.54395,-3.06238 -6.7728,-6.28906 -8.7365,-10.25329 -3.95984,-7.99389 4.86901,-15.83961 -0.57409,-22.90662 -5.19067,-6.73937 -14.37733,-8.4895 -21.42676,-12.52234 -9.50866,-5.43981 -17.52199,-12.93641 -24.10108,-21.57104 -9.73302,-12.77404 -24.76207,-37.04812 -13.0957,-52.95679 2.80298,-3.82227 19.23291,-9.05908 15.73071,-13.66901 -6.48168,-8.53197 -23.20753,-7.3274 -29.67675,-15.76465 -3.94043,-5.13921 -4.21729,-15.3827 -5.72754,-21.60955 -5.13452,-21.17046 -10.52784,-43.15872 -6.84412,-65 1.23206,-7.3048 4.33154,-15.18483 8.83874,-21 4.98694,-6.4342 15.016,-15.80598 13.55713,-24.99921 -1.2788,-8.05858 -11.05103,-9.15662 -16.68066,-13.0556 -8.59069,-5.94976 -18.3241,-19.97456 -18.64575,-30.94519 -0.60803,-20.73802 20.04029,-26.60969 34.64502,-35.01465 4.94946,-2.84839 17.31115,-8.69362 16.05249,-15.94214 -0.9668,-5.56762 -9.56226,-6.91107 -14.05249,-7.02857 -10.76293,-0.28167 -29.9496,4.62365 -38.81482,-2.52777 -5.19604,-4.19153 -5.90491,-11.21101 -4.8595,-17.48687 2.46021,-14.76867 8.04773,-27.56777 6.50379,-43.000005 -0.74634,-7.459648 -6.0044,-15.514472 -4.547,-23 1.66723,-8.563101 10.50684,-11.03467 17.71753,-12.895874 3.35534,-0.866026 8.44812,-2.254764 9.38733,-6.148071 1.19604,-4.958003 -8.05884,-13.397285 -8.34644,-19.956055 -0.38238,-8.719129 1.44897,-18.443203 4.87293,-27.89523 m 231.13335,0.064849 c 3.70916,4.1572422 7.70563,10.2801182 4.20979,15.8149392 -11.4342,18.103315 -38.65456,2.764354 -53.21302,12.743104 -8.60106,5.895318 -1.23584,15.941597 -3.8479,24.272338 -2.34399,7.475579 -11.88965,10.22242 -12.92749,18 -1.49841,11.228383 11.10829,22.011661 20.73145,24.520813 18.71738,4.880312 46.16615,-4.665806 54.19519,21.479192 6.54882,21.3248 -39.21885,33.96803 -20.98145,54.98455 15.52757,17.89372 46.31789,21.50935 66.78626,31.76856 8.55297,4.28692 21.62646,11.16431 21.80176,22.24689 0.17944,11.34605 -12.30641,15.61694 -21.80176,14.82635 -18.36314,-1.52893 -35.40981,-8.14923 -54,-6.85107 -6.2926,0.43939 -17.40357,2.66401 -19.21143,10.02856 -2.74267,11.17296 20.67225,20.97723 28.21143,24.74927 30.31186,15.16563 86.78271,29.17857 81.94983,72.24689 -0.58765,5.23692 0.0193,18.5169 -3.88807,22.30328 -3.05505,2.96039 -12.66308,-1.87433 -16.06176,-2.95917 -13.42284,-4.28436 -27.12953,-9.24536 -41,-11.76849 -3.55066,-0.64588 -11.60718,-3.53266 -14.26306,-0.0525 -3.77356,4.9447 9.23767,15.56952 12.26306,18.30713 11.42259,10.33617 37.01207,31.71199 31.19604,50.16894 -3.08362,9.78576 -14.69995,4.64613 -17.578,12.10956 -5.01244,12.99816 14.99389,22.27717 0.33874,35.70221 -2.04077,1.86951 -4.32995,3.32019 -6.95678,4.20679 -12.87255,4.34466 -26.04725,-1.98542 -38,-5.92823 -5.62402,-1.85516 -12.39295,-3.29997 -16.43604,2.01923 -6.88292,9.05547 1.26477,26.03602 -1.2445,36.89124 -3.0011,12.98265 -17.44544,11.68824 -22.03248,23 -1.65507,4.08139 -1.46968,8.1378 -0.88621,12.20085 m -73.48883,-0.0573 c -4.24848,-3.46664 -9.45874,-5.8663 -10.58247,-12.1435 -2.08606,-11.65319 5.48729,-20.85585 -4.42359,-30.90967 -13.23571,-13.42675 -50.08606,-16.63198 -49.77307,-41.09033 0.24634,-19.24492 20.62098,-36.44044 32.85254,-49 4.23389,-4.34742 14.63428,-15.10078 12.22839,-21.94135 -1.49939,-4.26337 -7.34948,-4.72357 -11.21374,-4.71912 -11.86169,0.0137 -22.85927,4.54767 -35,3.56708 -22.65233,-1.82965 -32.24025,-21.60646 -37.96375,-40.90661 -8.37438,-28.23942 4.62893,-53.16226 23.9784,-73 5.08287,-5.21112 21.76549,-19.26265 13.66748,-27.60572 -4.25183,-4.38049 -10.33522,-2.7799 -15.68213,-3.91205 -9.41564,-1.99365 -18.11353,-6.56775 -22.57251,-15.48223 -4.12183,-8.24047 -1.69286,-16.81227 4.61572,-22.71448 15.473,-14.47637 34.51186,-21.34712 52.95679,-31.3133 4.25891,-2.30114 23.48987,-10.32581 21.53857,-16.67285 -1.2146,-3.9508 -15.80127,-5.03418 -19.53467,-7.43286 -8.46629,-5.43944 -9.73768,-18.9649 -21.0039,-19.81171 -16.17113,-1.21551 -43.39198,17.89514 -56.89112,6.41199 -6.63329,-5.64269 -5.90051,-14.75776 -5.18371,-22.46679 0.96875,-10.418574 2.40308,-25.637889 12.11499,-31.851872 5.12951,-3.282041 11.33595,-1.474734 16.95984,-3.087159 10.21031,-2.927426 22.55139,-13.677195 25.3573,-24.060974 2.8833,-10.670399 -12.02027,-11.591864 -16.84424,-18.043213 -5.63268,-7.532825 -3.58443,-20.04864 0.0561,-29.52116532 M 150.76636,203.29925 c 8.34142,4.00872 26.84168,0.87536 37,0.99615 30.60263,0.36389 62.46719,7.71638 91,18.57947 9.33971,3.55585 25.32531,10.04444 27.20373,21.42438 2.18274,13.22392 -12.04786,18.59918 -22.20373,20.24615 -19.70115,3.19495 -38.49526,1.00312 -58,7.42438 -5.90417,1.94372 -15.2417,4.18909 -18.99073,9.54242 -5.70909,8.15215 4.16396,16.91937 9.99073,21.43756 12.68114,9.83312 27.78321,15.62629 40,25.93976 3.96374,3.34625 9.96057,8.25489 8.64197,14.31634 -0.91932,4.22595 -6.87732,7.50574 -10.64197,8.75311 -11.61828,3.84967 -24.21693,5.25159 -36,8.77857 -4.60865,1.37945 -15.28345,4.14991 -14.33802,10.56476 1.50818,10.23296 20.33546,17.17969 27.32337,23.29785 8.97411,7.85717 8.73901,14.81495 9.21289,25.6983 0.20422,4.68854 3.5387,7.12708 7.80249,8.2323 14.58922,3.78156 35.77406,-11.82274 47.36108,2.87341 4.98487,6.32244 2.13074,12.68654 2.80799,19.89509 1.01135,10.76561 4.07935,18.45142 10.64807,27 2.68396,3.49304 3.97461,6.92919 1.91357,11 -3.83593,7.57652 -16.5874,13.77906 -21.50769,21 -4.86507,7.13987 -7.08238,17.86121 -6.74905,28.26799 m -140.80681,-0.049 c 6.25111,-10.08688 12.46445,-20.19092 14.5428,-31.21902 1.48706,-7.8905 -4.81006,-6.56568 -8.64673,-11.2284 -3.42724,-4.16516 -2.20678,-9.96106 -1.30322,-14.7716 1.07056,-5.69988 3.78906,-11.12587 3.68518,-17 -0.34949,-19.77092 -11.69715,-39.7391 -21.89575,-56 -5.95849,-9.50042 -11.35939,-19.9809 -23.05017,-23.37348 -13.879871,-4.02783 -25.642707,19.86854 -30.110354,29.37348 -15.213364,32.36673 -21.958275,66.46951 -45.354126,95 -7.225335,8.81114 -15.656626,16.62623 -25.5355226,22.13818 -0.9330812,0.52059 -1.9350331,1.03668 -2.9832824,1.55624 M 63.742154,1.4965943 C 55.000909,5.9264906 47.021777,13.003799 40.770264,19.300049 32.450081,27.679741 23.750971,38.110667 17.451538,48.299255 c -2.172361,3.513485 -5.929075,9.613835 -3.618042,13.771607 2.880002,5.181391 10.327764,2.463257 14.932861,2.357239 5.438106,-0.125184 10.852177,1.953495 14.366455,5.976074 11.467885,13.126757 3.229744,37.920005 10.159058,53.895085 2.37219,5.46886 8.413948,15.05621 15.431275,14.45758 6.259881,-0.534 7.361331,-12.99256 9.922851,-17.45758 7.261224,-12.65734 19.635509,-22.654065 31.120364,-31.076421 5.20018,-3.813533 13.96534,-10.787779 20.98462,-9.396606 3.77746,0.748656 5.2384,4.431032 8.22448,6.384277 3.84949,2.517881 9.40564,2.420226 13.7909,1.788574 28.81393,-4.150447 52.5574,-20.320247 83,-15.970642 12.51134,1.787596 24.55738,7.021557 31.12341,18.270813 8.48681,14.540215 12.71947,39.072705 1.05408,52.906615 -5.82189,6.90423 -15.17054,11.33679 -23.17749,15.34027 -16.51011,8.25506 -33.79104,15.27632 -51,21.94214 -12.62536,4.89038 -35.09755,11.57826 -43,21.81098 m 1287.73834,8.96389 c -5.2952,1.8708 -10.5691,5.44895 -14.7383,8.08933 -15.6805,9.93016 -33.9192,22.09889 -41.1343,39.94678 -2.9053,7.18663 -1.0274,15.40406 -3.0215,23 -1.4121,5.37883 -3.4299,10.62225 -7.1685,14.83026 -1.4516,1.63409 -5.2685,4.11065 -4.33,6.75073 1.6726,4.70459 13.0986,2.59058 16.6543,2.45911 9.0302,-0.33399 15.7876,3.83857 19.601,11.9599 5.3133,11.31474 1.9558,24.17371 1.4383,36 -0.5389,12.30992 1.552,24.59833 6.1674,36 5.3303,13.16755 16.6038,22.96863 26.5604,33.43878 m -0.016,79.74448 c -3.3566,3.01308 -6.2783,6.24396 -6.375,9.81283 -0.1067,3.93833 3.0795,5.83673 6.3737,7.79318 m -725.66855,15.91639 c 3.57814,-5.08095 7.37644,-9.98979 11.35737,-14.70543 11.25146,-13.32788 24.35511,-23.34878 33.04639,-39 18.62486,-33.53977 30.43799,-78.52269 30.51465,-117 0.0322,-16.14561 -0.29066,-37.44008 -8,-51 -5.58459,10.65447 -2.86426,30.38666 -7.81177,43 -6.6245,16.88883 -23.42909,26.14412 -30.76379,43 -9.85729,22.65311 -7.25795,48.4341 -20.3512,70 -7.58678,12.4962 -20.88258,22.68298 -35.07324,26.51074 -5.74279,1.54907 -14.92469,-0.49719 -19.83643,2.51709 -4.71741,2.89502 0.35132,10.33154 -2.25696,14.96826 -4.69079,8.33898 -14.70801,12.28443 -19.89123,21.00391 -0.22559,0.37949 -0.44468,0.76112 -0.65771,1.14476 m -168.27121,-0.17518 c -9.17394,-17.24225 -19.44066,-33.55413 -31.75162,-48.96958 -9.13073,-11.43328 -20.1985,-20.40242 -27.8711,-33 -4.26123,-6.99645 -7.79834,-14.73683 -8.37427,-23 -0.63061,-9.04711 1.78357,-17.06819 -1.33166,-26 -6.71374,-19.24876 -23.04176,-31.78091 -31.44836,-50 -8.09997,-17.55455 -9.89539,-35.13186 -12.1543,-54 -0.82849,-6.91986 -1.21144,-18.88447 -7.48462,-23.37732 -3.27271,-2.34388 -6.21606,0.24969 -8.67053,2.42126 -5.411,4.78742 -10.80592,8.52625 -18,10.46686 -6.33459,1.7088 -13.06935,0.63513 -19,3.4892 3.29248,4.43457 9.38135,7.82654 12.52087,13.00079 8.02892,13.23272 11.06054,38.08357 3.56323,51.99921 -5.18785,9.62914 -13.21009,12.13568 -23.0841,14.66589 -2.42285,0.62085 -7.58875,1.8728 -7.07874,5.33411 0.95374,6.47234 19.19715,8.58624 24.07874,11.76001 14.26464,9.27416 22.98414,23.56429 28.93432,39.23999 6.63708,17.48533 12.81409,40.36433 8.53638,59 -1.80933,7.88231 -5.78321,13.91846 -11.4314,19.28552 -1.94812,1.85119 -5.74829,5.26135 -4.61731,8.3966 2.08301,5.77429 17.24622,-0.2229 21.57801,-0.0871 15.88033,0.49722 27.67297,7.80657 37.81161,19.52715 m -320.996594,0.10548 c 0.01809,-2.59827 -0.722042,-5.44609 -3.873612,-5.33796 -3.761475,0.129 -6.913234,2.09619 -9.554751,5.07014 M 29.867367,1.5541984 C 22.370702,17.275674 11.776844,30.751195 1.3718052,44.38634 m 0.2287551,55.82495 C 11.349265,94.621353 20.785471,86.46958 28.647461,99.300049 c 10.238027,16.708051 7.534427,43.110611 10.25,61.999211 0.858764,5.97337 1.862066,19.03228 7.973877,21.87884 4.113521,1.91583 10.265629,-1.76721 13.895019,-3.66357 11.372304,-5.94201 25.910164,-14.2704 33.033936,-25.21527 6.502677,-9.99053 -0.879517,-13.99989 -0.678955,-24 0.18042,-8.99713 8.585582,-16.29451 14.645022,-21.90973 4.06433,-3.7663 11.67164,-11.211854 17.89197,-8.598759 6.78734,2.851319 5.86353,9.462459 15.10803,7.268499 9.47069,-2.24769 17.72535,-8.721932 27,-11.898137 13.96056,-4.78094 30.31702,-6.487549 45,-6.847229 10.82079,-0.265076 24.03272,0.768687 30.14197,10.985351 10.58067,17.694195 -10.93434,40.691475 -23.14197,50.398925 -27.49619,21.86485 -65.13089,27.89675 -95,46.4151 -9.89526,6.13494 -26.705936,17.22657 -27.601809,30.18598 -1.002196,14.49742 19.490119,12.75512 28.601809,11.82946 15.47019,-1.57165 29.94057,-7.89502 45,-11.16125 17.19468,-3.72931 34.55068,-4.57813 52,-2.61804 9.78527,1.09918 21.24561,3.13739 30,7.86572 2.81201,1.5188 7.46008,4.27685 6.93982,8.07251 -1.06934,7.80065 -17.80617,11.0636 -23.93982,12.64123 -15.62633,4.01917 -31.45399,8.55324 -46,15.59339 -6.39477,3.09503 -14.25782,7.08772 -17.53931,13.77777 -3.70825,7.56011 2.64465,15.81574 7.62964,20.95984 10.83275,11.17852 35.21168,19.67238 40.74609,35.03937 4.31909,11.9926 -20.00305,15.57935 -24.52319,25 -7.15392,14.90996 2.57618,36.47034 9.00708,50 6.40844,13.48222 17.46352,28.76098 33.67969,29.78704 7.98412,0.50519 19.54517,-5.46794 26.84802,-0.0447 4.97815,3.69678 0.54395,13.57277 2.71521,19.2577 2.55542,6.69084 10.78491,10.33729 12.58569,17 2.71668,10.05187 -18.01086,13.52088 -21.25537,22 -4.9235,12.86691 4.38316,24.72548 8.40747,37.18401 m -93.85832,0.0545 c 7.38014,-11.25239 12.74527,-26.21688 12.42839,-38.23852 -0.41113,-15.59691 -15.32349,-16.78297 -19.97754,-29 -3.24023,-8.50561 5.32544,-16.55067 3.78162,-26 -4.44483,-27.20548 -21.66201,-57.1932 -37.83032,-79 -7.1173,-9.59936 -17.42299,-19.45386 -29.84485,-20.81171 -16.291246,-1.78076 -30.177495,11.55819 -32.561038,26.81171 -1.918089,12.27507 0.666136,24.53266 -1.523071,37 -6.334589,36.07399 -26.101835,70.97365 -53.915894,94.40966 -4.216922,3.55317 -8.6305929,6.87769 -13.179843,10.04032 M 1038.822,1.4165151 c 1.3004,11.7370139 -9.0853,25.9434439 -9.9653,37.8827599 -1.0847,14.716294 -1.322,29.284378 0.079,44 1.9024,19.975135 6.0537,40.515885 -1.2993,60.000005 -5.5014,14.57774 -22.1907,17.0069 -27.4685,31 -6.36826,16.88419 8.385,32.8998 1.9353,50 -4.16283,11.03703 -16.16125,15.65192 -21.55162,26 -5.38476,10.33733 -3.54553,21.28071 -6.5741,32 -3.94775,13.97276 -13.25159,27.02552 -22.29553,38 -22.87913,27.76303 -50.04043,53.85194 -76.91589,78.16973 -4.27869,3.87146 -8.06262,7.89295 -12,11.83027 -3.72449,-6.97759 -3.17761,-16.8307 -4.15515,-25 -2.57666,-21.533 -6.38391,-45.73452 -0.41663,-67 2.9834,-10.63183 9.57922,-18.26411 14.3125,-28 1.74829,-3.59607 4.70337,-8.86298 3.42358,-12.98456 -5.59789,-18.02922 -35.16212,2.04998 -43.56018,-8.31867 -7.18199,-8.86711 11.20264,-22.60358 9.89356,-32.69677 -0.85633,-6.60229 -13.9895,-8.06831 -9.73609,-14.91126 5.64807,-9.08672 18.62648,-15.81477 27.23841,-21.94751 23.66599,-16.85307 49.34975,-30.66744 73,-47.56872 8.17321,-5.84088 16.85902,-11.6711 23.99536,-18.61188 2.2063,-2.14582 6.16125,-5.36341 5.82873,-8.8133 -0.36547,-3.79211 -6.99524,-4.08227 -9.82409,-3.93823 -10.72265,0.54602 -21.40626,2.11646 -32,3.87116 -33.96738,5.62615 -68.46988,17.03308 -103,17.93438 -8.67065,0.22632 -28.26625,4.84649 -33.38733,-5.07251 -3.92957,-7.61125 6.5553,-17.36688 11.39123,-21.7716 14.41528,-13.12994 33.70071,-23.009841 48.9961,-35.431338 4.11279,-3.340024 14.56958,-10.214728 13.17212,-16.64508 -0.9618,-4.425656 -6.53797,-5.0271 -10.17212,-5.089478 -8.18298,-0.140442 -27.61975,0.524828 -26.82324,-12.005432 0.52038,-8.187004 8.89185,-16.423282 15.82324,-19.81012 7.57518,-3.701412 16.8755,-1.820009 25,-3.854248 12.66735,-3.17175 25.01124,-10.086738 36,-16.9497678 1.65529,-1.0337982 3.55088,-2.2642646 5.47218,-3.6647057 M 1438.5454,187.70453 c -5.8498,7.07017 -12.3778,13.46506 -18.779,17.9458 -30.8189,21.57249 -78.1351,-4.66097 -104,-23.06018 -8.7605,-6.2318 -17.2151,-12.48622 -23.4322,-21.29089 -11.1472,-15.78716 5.2188,-32.67213 16.4322,-42.83027 15.0246,-13.61095 45.9287,-25.756241 52.2971,-46.169735 2.8354,-9.089041 -9.2549,-15.254526 -4.7207,-25 4.1447,-8.908499 20.5232,-13.327646 21.6814,-22.996154 0.677,-5.650812 -7.0594,-8.293214 -11.2578,-9.564759 -8.3624,-2.532625 -19.1323,-4.848348 -23.2743,-12.8832208 m 94.9413,152.7331488 c -5.8617,11.92758 -11.8042,23.45251 -19.6678,30.6068 -17.0713,15.53135 -42.9504,7.43938 -61.9992,-0.0995 -5.9678,-2.36188 -13.7071,-4.66486 -18.8304,-8.4953 -14.8215,-11.08135 -12.0488,-26.48231 -2.8364,-40.30096 10.6968,-16.04509 26.9326,-27.71248 39.8364,-42.000005 5.6831,-6.292352 13.8631,-14.114877 15.4207,-22.999206 1.4014,-7.992302 -13.2354,-8.144782 -10.669,-13.911316 5.7715,-12.968066 35.7642,-4.818626 32.128,-27.089478 -1.9142,-11.723646 -11.1024,-22.8429587 -20.8695,-29.2304497 M 603.67179,1.7245457 c -4.67821,5.3128861 -15.32899,7.070496 -20.90543,9.3316673 -12.50842,5.071956 -23.88648,14.311964 -28.45215,27.243042 -16.26963,46.079361 46.042,60.998081 59.71765,95.000005 6.55773,16.30448 -16.25902,28.6551 -6.09106,42.99615 12.05003,16.99565 40.10744,18.39839 57.82556,26.78473 5.82872,2.75885 17.54321,7.55262 17.54321,15.21832 0,11.92138 -18.66346,5.36792 -24.54321,3.34491 -18.71275,-6.43853 -38.45632,-3.63457 -55,7.0957 -7.69054,4.9881 -15.59864,12.82179 -15.87036,22.56019 -0.41761,14.96648 17.58399,22.6037 28.87036,28.24688 24.06687,12.03344 48.834,23.65687 72,37.35651 7.06285,4.17676 20.78772,9.7541 23.28784,18.39197 2.92834,10.11748 -17.8645,5.86737 -22.28784,5.0039 -18.59068,-3.62909 -36.24746,-10.88568 -55,-13.57104 -6.79052,-0.97241 -16.77466,-1.0194 -20.56641,5.61572 -3.1687,5.54479 -0.40332,14.41841 1.77088,19.95606 6.70824,17.08555 20.59449,28.65912 33.70605,40.72918 4.62817,4.26056 13.38525,11.3506 13.66663,18.25537 0.2456,6.02899 -8.78919,6.77748 -10.83411,12.03089 -2.56836,6.59813 5.40417,14.98621 1.38354,20.70984 -3.20996,4.56964 -10.20654,4.37872 -15.12658,4.26007 -11.54284,-0.27832 -25.46974,-5.60363 -35.98145,1.49688 -12.63158,8.53246 -3.03418,29.61519 -6.39746,42.51777 -2.59192,9.9431 -9.77174,13.53785 -15.72143,21.0393 -5.96096,7.51569 -9.55731,16.23623 -12.80252,25.1322 m -29.93616,0.13485 c -2.46723,-9.26878 -4.16098,-18.80137 -4.16098,-28.30635 0,-6.70593 3.05298,-13.44899 2.46997,-20 -1.10156,-12.37823 -11.60963,-14.18122 -21.46997,-17.03937 -11.57397,-3.35492 -27.16126,-12.55409 -27.95606,-25.96063 -0.62182,-10.48864 6.21132,-19.06215 12.99536,-25.98536 15.7849,-16.10868 36.76454,-27.25264 44.94605,-50.01464 3.09448,-8.60931 8.45263,-25.59834 1.19678,-33.48615 -6.3186,-6.86895 -18.56055,4.16345 -23.18213,8.46143 -12.69177,11.80303 -28.31374,23.98962 -46,27.10113 -7.18468,1.26398 -15.8938,1.18957 -20.43604,-5.12036 -4.9552,-6.88366 -1.14026,-15.22029 -2.00378,-22.95605 -0.58997,-5.2854 -1.44898,-10.37964 -4.19373,-15 -2.41992,-4.07355 -6.39966,-6.92378 -6.17431,-12 0.23498,-5.2951 5.02124,-9.30835 8.80859,-12.33411 11.02526,-8.80822 24.50306,-13.93629 33.81018,-24.66669 7.5913,-8.75212 0.78259,-15.19691 2.85803,-24.9992 2.66675,-12.59521 18.40039,-25.64717 17.99781,-37.95606 -0.13953,-4.26666 -4.11707,-5.12414 -7.66675,-4.85492 -12.97167,0.98383 -23.85353,3.64673 -37,0.79633 -4.87574,-1.05713 -14.43115,-2.9203 -10.96765,-9.9823 3.9436,-8.04107 17.32996,-13.42493 24.96765,-17.24378 19.1804,-9.5902 39.48561,-17.72974 56,-31.51391 9.28868,-7.75298 19.80602,-22.43764 14.03015,-35.24457 -2.6709,-5.92223 -7.92079,-9.26581 -14.03015,-6.08026 -12.22717,6.37548 -27.07143,27.66997 -42.95679,14.68518 -10.86718,-8.88293 -3.85402,-28.60492 -22.04321,-29.500734 -13.06188,-0.64331 -25.57228,6.806334 -38,9.764584 -4.07044,0.96894 -11.30799,2.78199 -13.73072,-2.0177 -3.53588,-7.00493 6.59449,-16.424256 10.56482,-20.851071 6.59387,-7.351922 14.16725,-13.926947 22.1659,-20.112671 9.43505,-7.296563 20.08302,-14.01295 26.89197,-23.92749 8.49828,-12.374256 -4.63966,-13.428291 -11.67823,-20.2901 -5.07444,-4.947015 -5.61996,-14.4848149 -2.21442,-20.4990823 M 1015.8773,1.368635 c 1.9064,1.2527893 3.506,2.874839 4.5712,4.969988 7.8513,15.443283 -15.6824,38.151312 -27.68214,43.840271 -4.7461,2.250059 -18.36426,5.371284 -18.36426,12.156616 0,5.985712 12.34216,10.101688 16.27393,13.579468 8.43309,7.459405 14.99387,20.975475 15.01147,32.384282 0.024,15.52769 -10.18702,30.07166 -19.87097,41 -7.45165,8.40929 -17.41699,16.98249 -21.49072,28 -2.04505,5.53075 -2.48719,12.90948 1.85949,17.48223 3.84436,4.04419 11.12574,6.99159 11.12574,13.51777 0,9.67168 -16.57361,16.31855 -20.83948,25 -8.98071,18.27683 0.3004,40.10829 -9.23767,57.99615 -4.65882,8.73723 -16.58961,7.17914 -24.46753,12.0694 -1.54688,-6.13867 -34.58655,22.13054 -32.71997,15.93445 3.33996,-11.08709 8.25573,-23.17891 7.50695,-35 -0.5299,-8.36474 -4.8219,-15.48176 -11.78698,-20.03394 -4.86743,-3.18115 -12.20801,-4.89454 -14.39282,-10.96991 -4.05884,-11.28673 19.59082,-21.06715 23.39904,-30.99615 3.43054,-8.94433 -2.08165,-17.42348 3.69287,-26 4.37391,-6.49621 11.214,-12.12842 17.30091,-17 14.39025,-11.51702 30.32789,-20.94612 45,-32.13044 11.84337,-9.028 23.41968,-21.00685 19.98535,-36.86956 -1.76221,-8.1394 -5.7837,-18.772529 -14.98535,-20.655888 -11.41662,-2.336729 -21.01027,6.270328 -31,9.959899 -20.32969,7.508539 -41.64138,12.238529 -63,15.776249 -10.38476,1.72009 -20.48951,3.50287 -31,3.9591 -2.73694,0.11878 -9.46021,2.01477 -10.07874,-2.14892 -0.68347,-4.60034 8.82007,-9.15351 12.07874,-11.01776 13.77892,-7.882686 30.28077,-13.56813 41.57483,-25.057133 4.98352,-5.069575 11.31689,-12.078194 10.10803,-19.815552 -1.38318,-8.852774 -9.39794,-14.4098 -3.53467,-23.999206 10.21402,-16.705297 35.71307,-16.369986 42.38551,-35.5372213 M 518.53847,1.2290422 c 6.54468,-2.4351804 13.32839,-3.666933 17.22789,-3.1358415 3.46821,0.4723436 5.88376,1.65264466 7.50595,3.3139483 m 0,0 c 5.79967,5.9395033 1.45864,18.027299 -1.17258,25.892106 -6.92504,20.69932 -16.09058,40.360433 -25.59192,60 -1.99976,-6.702203 -13.68311,7.639885 -20.13501,0.104187 -4.12195,-4.814326 -18.25256,-6.730963 -19.17981,-13.123474 -1.55798,-10.740101 20.20253,-21.892159 25.7771,-29.980713 3.29212,-4.77685 6.17432,-11.285162 3.4823,-17 -1.74084,-3.695491 -5.62365,-6.561893 -5.42907,-11 0.27625,-6.2994534 8.67781,-11.7819683 17.51515,-15.0702128 m 463.22789,9.5848618 c 17.17258,-3.5123868 14.22582,12.002145 7.40515,21.485351 -7.13,9.913198 -25.4994,20.005068 -38.40515,21.527771 -7.35705,0.868041 -36.56115,-8.065439 -27.50147,-18.314819 3.57349,-4.042721 9.67444,-6.550966 14.50147,-8.964478 13.71898,-6.85949 28.94435,-12.654421 44,-15.733825 M 1438.4192,114.41497 c -2.6707,4.22826 -4.7082,9.017 -8.6929,12.4167 -6.4651,5.51585 -18.5603,7.05744 -23.2031,14.50769 -6.6201,10.62315 16.1135,18.75464 4.1096,29.56945 -13.7615,12.39831 -45.3718,4.44402 -59.8271,-3.16742 -16.4678,-8.67119 -2.616,-25.22132 6.9607,-32.77313 16.2273,-12.79613 33.4494,-23.79897 46.6743,-39.669005 7.1047,-8.525747 8.8794,-21.054207 16.5356,-28.56018 4.7748,-4.681027 11.6697,-5.633083 17.6214,-7.637034 M 1227.7664,37.828552 c 24.6547,-5.616571 27.4008,38.622696 22.0463,53.470703 -6.3273,17.546305 -21.4326,28.111585 -38.0463,35.280885 -7.4937,3.2337 -24.8631,8.54273 -26.7122,17.72217 -0.7798,3.87109 2.6211,6.48394 5.7268,7.88891 8.3013,3.75537 17.417,5.22102 21.9414,14.1474 6.6978,13.21417 -10.9592,37.66816 2.1026,46.69672 11.1174,7.68462 26.9987,-2.40607 38.9414,-1.64581 26.4641,1.68469 45.9633,16.28383 63.0857,34.90973 7.2011,7.83348 17.4479,18.73279 18.4982,30 2.0074,21.53257 -31.8916,17.23089 -43.5839,12.80786 -4.4729,-1.69202 -10.6236,-4.53998 -14.6822,-0.48999 -8.8969,8.87804 5.9595,26.15809 -3.7082,37.59185 -5.156,6.09789 -26.8548,8.62837 -22.7468,19.08722 2.7246,6.93719 12.3542,11.4549 19.1372,13.42359 19.07,5.53508 39.3435,0.95604 58,-4.42053 7.5644,-2.18 23.5546,-7.5368 29.3818,0.32946 4.4143,5.95898 -2.9375,14.84638 -5.9575,19.67054 -7.4612,11.9185 -16.7744,27.396 -12.2036,42 4.6543,14.87035 19.3352,17.06402 32.7793,16.9992 4.2688,-0.0206 15.2114,-3.26532 17.8635,1.51465 2.6299,4.74005 -6.8486,11.24664 -9.8635,13.4715 -11.0088,8.12407 -31.9395,18.56733 -35.1065,33.01465 -4.6606,21.26084 29.6045,10.10023 35.1504,20.21374 1.854,3.3811 -1.3118,7.30689 -3.3726,9.78235 -5.3415,6.41698 -11.809,9.89051 -12.5632,19.00391 -0.235,2.83934 -0.047,5.57036 0.48,8.21029 m -57.0067,-0.29453 c -8.7946,-11.81177 -22.8786,-16.84969 -26.2675,-33.91576 -3.291,-16.57384 2.239,-38.97488 -5.8471,-53.98456 -3.9476,-7.32745 -9.9358,-3.49176 -16.4668,-5.17829 -8.1573,-2.1065 -16.1731,-7.17071 -23,-11.98144 -16.034,-11.29858 -30.1021,-24.62532 -47,-34.65509 -7.1495,-4.24347 -16.74,-8.07214 -23.8558,-1.67822 -5.1977,4.67059 -5.1418,13.03968 -5.1442,19.4776 0,11.8687 2.8181,22.07075 9.52,32 6.2351,9.23772 16.3479,17.87256 16.5771,30 0.1477,7.81566 -7.0342,11.75123 -7.8642,19 -1.1648,10.17247 12.2468,10.03724 3.7478,20.99609 -6.3161,8.14415 -15.0111,13.92066 -23.349,20.01277 m -150.2832,-0.3154 c -1.712,-1.90938 -4.9085,-2.30064 -10.34854,0.0273 -0.34025,0.1456 -0.68022,0.29137 -1.01957,0.43813 m -86.60799,0.0387 c 2.36684,-11.93621 5.43908,-23.863 9.58044,-35.19754 20.7888,-56.89686 54.4019,-105.64952 100.04716,-144.69983 12.7197,-10.88189 27.539,-20.62288 42,-29.30017 10.7114,-6.42742 24.4585,-13.3553 31.5407,-24.00385 2.7434,-4.12488 2.4934,-8.02887 -2.5569,-9.96374 -6.9704,-2.67054 -13.5246,-1.86347 -19.8906,-6.82099 -13.1325,-10.2271 -16.0039,-33.73323 -14.9089,-49.21142 1.1579,-16.3676 4.9089,-31.4626 16.116,-43.96064 8.2331,-9.18163 18.7224,-15.78071 25.8022,-26.03936 12.9211,-18.72289 15.7676,-44.3218 28.3652,-63 9.4646,-14.032705 24.9551,-14.488599 38.5323,-22.810979 21.1315,-12.953051 37.9831,-39.960699 63,-45.659729 m -91,94.470708 c -0.741,-3.41944 -0.2283,-6.53205 0.2707,-10 3.1426,-21.84172 17.1392,-16.67403 33.7293,-21.88813 8.4099,-2.643183 15.9626,-7.967226 23,-13.125791 7.3598,-5.394953 20.6435,-22.090086 30.8918,-19.649658 8.7961,2.094664 2.9785,18.6695 0.093,23.663574 -8.9919,15.565955 -27.625,22.408765 -43.9853,27.655885 -14.4402,4.63129 -30.0745,7.35114 -44,13.34412 M 942.76636,68.764526 c 7.94298,-1.377562 11.81371,4.471807 4.95605,9.925171 -8.71776,6.932549 -27.71278,16.917116 -38.95605,17.466065 -8.74035,0.426758 -9.61523,-5.01569 -2.99536,-9.417481 10.33385,-6.87127 24.42029,-15.792848 36.99536,-17.973755 m -722,173.534734 c -4.63782,5.31432 -15.53273,7.73388 -23,9.85955 -15.22276,4.33338 -38.75343,11.84274 -44.51697,28.14045 -5.18273,14.65532 5.61952,27.5619 16.51697,35.86956 4.77563,3.64069 12.53784,8.17195 14.67285,14.11115 1.71277,4.76446 -9.28418,8.125 -11.66431,12.02392 -5.6455,9.2478 -1.23303,24.04805 -5.00854,32.99537 -10.02953,-4.93024 -12.5818,-22.31294 -19.39038,-31 -15.28856,-19.5067 -38.83144,-20.34258 -60.609623,-11.54706 -8.580069,3.46521 -16.776983,8.54536 -22.696045,15.54706 -8.706411,10.29875 -6.635988,19.80268 -8.628784,32 -1.977293,12.10259 -6.570319,24.70307 -13.223022,35 -10.926625,16.9119 -25.493422,30.70582 -39.4375001,45 -0.875616,0.89761 -1.7183083,1.76263 -2.5347608,2.61023 m 0.2697107,13.75018 c 3.7249461,0.25878 7.4164866,0.5783 10.2504012,1.63959 -1.7787909,2.94162 -5.5838004,4.97376 -10.0466512,6.74157 M 0.98726724,275.56851 C 7.9527927,264.96524 26.018819,250.93075 22.217793,238.29926 18.906173,227.29401 10.946682,221.96156 1.5700802,220.32358 m 0.05518,-103.38271 c 7.521533,-1.01674 14.6703572,-0.0915 20.9165082,5.97795 18.446027,17.92412 -6.646983,36.50892 -16.1619873,49.38428 -6.83629683,9.2506 -0.90856,17.51373 8.3865963,21.75311 3.518917,1.60498 7.238042,3.09137 11,4.00385 5.214839,1.26489 10.653204,1.52447 16,1.14972 25.625096,-1.79602 56.383191,-23.59945 68.015383,-45.91052 4.34985,-8.3432 1.81641,-24.41121 7.71228,-30.5224 2.93945,-3.04688 14.40015,0.94348 19.27234,-0.15741 12.89891,-2.91462 24.54517,-15.34601 38,-15.17127 5.09667,0.0662 8.19299,4.61224 13,5.69751 8.04125,1.81543 22.1504,-5.57341 28.56628,-0.10413 3.99903,3.40906 1.5752,9.39991 -0.45666,13.2577 -5.50805,10.45775 -14.83717,17.76246 -25.10962,23.21838 -12.21606,6.48815 -25.50502,9.46455 -38,15.09332 -19.90208,8.96557 -38.28297,21.20504 -52.57556,37.6883 -8.472896,9.77159 -20.79431,23.98188 -14.674443,37.99615 5.454829,12.49145 22.663833,17.60034 35.250003,16.11035 21.36167,-2.52887 40.99721,-12.84143 63,-14.93677 11.66149,-1.11053 26.24879,-2.56951 37,0.83027 m 1193.00002,-129 h 1 m -784.00002,284 c -3.33496,5.2039 -9.11256,11.50567 -16,13.43212 -12.70654,3.55414 -27.35084,0.94594 -38.98535,8.41047 -14.66442,9.40849 -0.71083,23.95264 -7.95289,35.02392 -2.833,4.33106 -8.43078,4.34528 -13.06176,3.51776 -9.86266,-1.76239 -25.24536,-6.79346 -28.60572,-17.38427 -5.036,-15.87199 10.61842,-24.89046 18.56556,-36 15.28782,-21.37132 21.17566,-44.35825 24.32483,-70 1.08361,-8.82311 1.62987,-23.43086 -4.79468,-30.48145 -6.55175,-7.19018 -16.84572,-4.01044 -24.48999,-0.39819 -17.90147,8.45922 -26.86892,28.09846 -42,39.54016 -6.72631,5.08617 -24.48181,15.99926 -28.42749,2.33868 -4.31885,-14.95256 4.09632,-34.42701 16.42749,-42.77466 7.35912,-4.98181 15.14796,-5.86561 21.69983,-12.51391 14.15148,-14.35973 24.67028,-39.90017 27.43054,-59.71063 1.2091,-8.67816 0.83312,-17.72969 -6.14966,-23.77546 -4.60437,-3.98651 -26.43761,-6.23365 -18.6582,-16.13507 9.74779,-12.40666 31.65333,-17.43812 42.39123,-29.12884 4.74488,-5.16589 8.94458,-11.15504 11.32019,-17.96063 2.19226,-6.28039 0.92665,-13.60237 6.19068,-18.65589 5.49706,-5.27727 14.89173,-4.47961 20.59021,0.1659 7.34923,5.9912 5.39135,15.67756 2.85498,23.48999 -4.73304,14.57866 -19.73864,34.12111 -14.44141,49.96063 3.00134,8.97417 22.22498,4.39521 21.05103,13.05481 -0.68201,5.03087 -6.64563,9.52893 -10.27942,12.52081 -10.41576,8.57573 -24.18189,16.86495 -19.62036,32.46375 5.55699,19.00272 34.26892,22.46077 34.43676,45 0.0989,13.28252 -11.87524,22.30738 -16.34802,34 -3.9602,10.35277 4.88965,12.87488 5.38733,22 0.44653,8.18706 -6.30017,15.86597 -2.42212,23.98455 5.84533,12.23681 29.56642,9.50331 39.56641,16.01545 m -464,-269 c -3.97815,5.17455 -8.71766,8.2171 -14,11 -2.46106,-8.67205 6.21595,-14.40674 14,-11 m -32,29 c -0.99292,-4.64179 0.12341,-12.95716 5.04553,-14.50312 8.35289,-2.62347 -3.82385,13.27027 -5.04553,14.50312 M 1.1123039,142.42792 c 4.7145062,-0.52123 10.5261151,-0.47662 12.6980191,3.17456 2.881466,4.84405 -4.7536657,10.11908 -8.0439456,12.25696 -1.3619948,0.88496 -2.7462079,1.73719 -4.146555,2.56566 M 1142.7664,164.763 c 12.2487,-2.16516 26.9648,-0.3089 39,2.42438 3.9191,0.89007 9.8933,1.78589 12.2878,5.4483 3.0146,4.61084 -6.9797,10.5315 -9.4683,13.66742 -6.9182,8.71807 -16.7141,31.38716 -6.6057,40.69293 12.5686,11.57073 40.1326,2.4895 54.7862,-0.0818 23.5122,-4.12568 49.9504,1.36299 67,18.38501 5.6027,5.5938 19.531,16.72431 17.6389,25.95678 -1.6299,7.95269 -13.3137,5.33808 -18.6389,3.69519 -12.0914,-3.73034 -22.8467,-10.07984 -34,-15.86804 -4.7823,-2.48175 -12.4305,-6.55292 -17.9808,-5.17126 -6.655,1.65673 -5.1848,9.45483 -3.6713,14.38733 4.9543,16.14622 3.3979,29.31904 -5.2237,44 -6.2136,10.58061 -16.8532,17.18323 -14.53,31 4.2978,25.55929 45.614,36.41326 67.4058,35.98455 9.6484,-0.18982 21.0188,-4.93968 29.9992,0.75385 16.8697,10.69524 0.4256,36.13192 5.4444,52.2616 3.5871,11.52843 26.4194,16.70283 15.8718,29.9599 -5.5093,6.92442 -17.5706,14.71953 -26.2722,9.05554 -7.5049,-4.88489 -7.7964,-14.46425 -10.9986,-22.01544 -3.3908,-7.99609 -9.217,-14.43947 -16.0446,-19.62421 -10.7491,-8.16247 -23.6905,-9.34375 -36,-13.81177 -16.91,-6.13781 -32.3982,-15.2801 -47,-25.59955 -14.6009,-10.31877 -38.7732,-37.40849 -56.7872,-17.87109 -20.4125,22.13877 -12.6655,63.22719 0.097,86.90662 2.0454,3.79516 4.2703,7.81762 7.7337,10.50152 2.5168,1.95056 7.3838,3.03162 8.125,6.60339 1.2383,5.96759 -8.3806,10.66658 -8.0625,17.89509 0.2878,6.53856 7.4909,13.69581 5.2754,19.98144 -3.0484,8.64745 -14.67,5.90234 -21.3811,7.80713 -8.7493,2.48328 -15.6333,8.83448 -20.6412,16.21143 -0.042,0.0619 -0.084,0.12387 -0.1257,0.18592 m -72.4337,0.10484 c 1.9854,-4.37964 3.7189,-8.89715 5.6249,-13.29076 4.6994,-10.83325 14.1504,-36.06384 -8.4243,-30.38965 -3.4849,0.87597 -6.7432,2.61596 -10,4.0841 -22.2779,10.04296 -40.72429,26.52406 -63.00002,36.44446 -2.09802,0.93433 -4.52946,2.02352 -7.12195,3.06999 m 0,0 c -9.39851,3.79376 -20.91388,7.02615 -26.33488,0.28371 m 0,0 c -1.68911,-2.10085 -2.78655,-5.17014 -3.04391,-9.49261 -1.08813,-18.27647 11.30116,-43.0928 19.25379,-59 12.51244,-25.02805 28.74233,-49.25692 48.25087,-69 20.4209,-20.66643 42.9611,-39.48397 66.9961,-56.27851 18.5878,-12.98833 38.7448,-23.68201 56,-38.45068 5.9621,-5.10296 14.3508,-11.45613 16.7399,-19.27081 3.3226,-10.86749 -12.7065,-13.02179 -19.7399,-12.99921 -6.6507,0.0214 -13.3977,2.35644 -20,1.81091 -17.7664,-1.46795 -23.835,-17.09847 -24.9107,-32.8117 -1.0146,-14.8208 -0.5625,-31.62678 11.9114,-41.72529 7.4905,-6.06401 17.4895,-8.02216 24.9846,-14.57562 10.4624,-9.148 12.7822,-19.54278 28.0147,-22.23535 m -9,31.00385 c 10.5678,-1.99378 26.9587,5.13331 27.6814,17.53241 0.4694,8.0565 -12.2474,20.81604 -19.6814,22.40588 -4.5569,0.97455 -10.5892,-5.46777 -14,-8.03241 -4.4988,-3.38263 -9.637,-7.14778 -12.0115,-12.37347 -4.6568,-10.24859 9.6504,-17.95496 18.0115,-19.53241 m -207.00002,75.53241 c -7.25451,-5.11022 -15.70142,-13.62324 -18.36267,-23 -2.81067,-9.90319 2.37256,-21.59816 7.23852,-30 4.05103,-6.99468 11.63038,-17.98688 21.12415,-15.74384 3.56115,0.84137 9.53161,4.37616 8.93982,8.72919 -0.83557,6.14611 -10.78723,11.05262 -13.03858,18.01465 -3.91003,12.09123 -2.43628,31.04383 -5.90124,42 M 32.74707,216.61407 c 6.316767,0.65357 2.372798,8.53534 -2.831787,7.59876 -5.108393,-0.91925 -1.387081,-8.03528 2.831787,-7.59876 M 1.5984199,402.9495 C 8.0359566,399.0668 13.376236,393.66474 16.395264,386.30005 20.641023,375.94292 6.9089061,378.04337 1.153001,374.93522 m 0.2164991,-40.06773 c 5.0519239,-5.3697 11.1741469,-10.1774 14.7988349,-15.56823 9.266593,-13.78179 4.908088,-30.11012 11.875854,-44 5.351924,-10.66876 17.933722,-12.03676 23.493775,-22.0008 4.923335,-0.82818 11.707032,-28.53027 12.420532,-24.9992 3.041135,15.05124 8.486585,25.67689 21.807861,34.3009 8.956168,5.79808 19.430793,10.92023 30.000003,12.77551 5.39745,0.94745 14.28894,-1.86395 18.58105,1.66589 11.47912,9.44042 -4.85096,24.21619 -12.58105,28.67823 -26.87229,15.51133 -66.66787,16.47109 -87.58179,40.86499 -8.871084,10.34709 -1.853028,20.13984 -2.511596,31.71448 -1.037342,18.23283 -12.698951,40.51991 -30.0736311,49.21085 M 1058.2798,538.28382 c 7.8573,-20.13343 23.3306,-36.27824 31.9109,-55.98456 4.0251,-9.24456 9.0085,-20.97884 1.1821,-29.81482 -8.3152,-9.38775 -20.5872,-6.30854 -30.6064,-2.17438 -22.6326,9.33861 -40.4854,26.40119 -60,40.40973 -6.93888,4.98108 -14.02325,10.35815 -22.00004,13.56408 -2.76526,1.11133 -6.9137,2.85901 -8.95764,-0.30639 -3.22559,-4.99536 2.91137,-15.49732 5.70764,-19.67822 10.42845,-15.59178 29.75124,-22.70999 38.33784,-39 4.181,-7.93157 2.8028,-15.63985 4.3799,-24 1.5127,-8.01818 6.3672,-15.15053 11.7058,-20.98536 5.6485,-6.17357 13.1565,-11.94648 19.8265,-17.13037 30.77,-23.91459 67.8305,-44.65017 94.9607,-72.88507 6.946,-7.22893 13.4113,-14.49165 17.2036,-23.9992 2.0317,-5.09405 0.3027,-10.6999 1.7639,-16 2.9875,-0.48261 34.4604,-18.01453 34.8303,-13.89124 0.7173,7.99596 -11.7405,11.77705 -7.2871,20.87579 4.3706,8.92993 15.9055,8.64478 23.5239,12.92054 3.395,1.90539 7.1118,4.83166 5.4978,9.09491 -3.5012,9.24822 -19.0107,14.59937 -23.9499,24.00079 -3.729,7.09807 0.3611,19.75391 -8.5586,23.2569 -6.2725,2.46344 -13.8604,-1.74512 -19.9846,-3.047 -15.0276,-3.19458 -28.5171,0.97962 -36.5354,14.78931 -11.524,19.84708 -20.1197,55.45638 -13.6761,78 4.2937,15.02183 20.2207,20.8636 18.0271,39 -2.7256,22.53501 -28.1989,32.4037 -38.5031,51 -1.9067,3.44112 -3.6798,7.38413 -5.4741,11.52784 M 105.76636,297.29926 c -9.809685,2.81848 -20.289319,-4.18982 -30.000003,-5.4961 -9.578237,-1.28845 -17.942267,6.11219 -25,11.36878 -2.432859,1.81195 -6.343997,5.75592 -9.682128,5.12963 -2.860715,-0.53668 -2.310914,-4.97082 -1.992188,-7.00231 1.127685,-7.18707 4.526616,-14.43837 9.141968,-19.98536 4.480342,-5.38469 11.185798,-10.63598 18.532348,-10.88116 13.990221,-0.46686 33.874033,14.76106 39.000003,26.86652 m 1078.00004,11 c 1.3645,7.06548 -4.3489,14.11474 -9,18 -2.4339,-8.25488 1.8598,-13.52124 9,-18 m -78,54 c 3.3169,5.38023 1.1799,21.07647 -7.8558,19.71215 -6.3867,-0.96435 -1.4714,-11.04919 0.9632,-13.67126 2.0808,-2.24109 4.5288,-4.11566 6.8926,-6.04089 m 113,8 c 16.8444,-8.8164 9.3713,18.04929 0,0 m 20,21 c 13.603,-4.02094 34.041,2.39984 47,7.09027 3.9621,1.43408 14.6218,6.66517 11.6674,12.49847 -1.7373,3.43042 -11.8256,-0.77325 -14.6674,-1.58874 -11.7437,-3.37 -37.9297,-6.31612 -44,-18 m -190,42 c -1.867,-12.61968 9.9128,-31.44624 22,-36.66205 5.2739,-2.27576 15.1272,-4.62048 19.2568,0.89044 4.1501,5.53838 -1.3833,12.44488 -5.3501,16.01391 -9.3938,8.45208 -25.906,14.06624 -35.9067,19.7577 M 204.17598,539.0652 c 4.48355,-15.86973 9.37655,-33.23393 7.11127,-47.76594 -1.22363,-7.8496 -5.34754,-12.78174 -12.52087,-16.09876 -3.11804,-1.44177 -11.68604,-3.04327 -10.93982,-7.83954 0.69372,-4.45898 9.172,-6.94665 12.93982,-7.77234 10.90514,-2.38971 28.79016,-4.25505 32.2207,9.71064 3.91968,15.95701 -8.85644,33.0934 -5.89197,50 1.12455,6.41353 9.80831,13.18423 11.3686,19.2447 m 1092.30269,-8.2447 c -10.0113,-5.58032 -15.4246,-12.29201 -12.9954,-24 0.5991,-2.88831 1.5496,-8.56629 5.1689,-9.07874 3.6397,-0.51526 5.7483,4.47278 7.0664,7.07874 4.6343,9.161 4.9095,16.62757 0.7601,26 m -529.3036,7.93331 c 4.23542,-1.0387 14.68189,-2.73802 14.26959,-0.0921" /><rect
     style="fill:#ff0000;stroke:#c8b7b7;stroke-width:3;stroke-linecap:round;stroke-linejoin:round;stroke-dasharray:none"
     id="rect824"
     x="17.562338"
     y="-278.80209" /></svg>
