<?xml version="1.0" encoding="UTF-8" standalone="no"?>
<svg
   width="459.22238"
   height="64.655754"
   viewBox="0 0 459.22238 64.655754"
   version="1.1"
   id="svg4"
   xmlns="http://www.w3.org/2000/svg"
   xmlns:svg="http://www.w3.org/2000/svg"><defs
     id="defs4" /><path
     style="clip-rule:evenodd;fill:#df5206;fill-rule:evenodd"
     d="m 58.180394,60.353751 27.119,-27.117 a 2.536,2.536 0 0 1 3.57,-0.004 2.545,2.545 0 0 1 -0.005,3.573 l -27.115,27.116 a 2.532,2.532 0 0 1 -3.568,-0.003 2.539,2.539 0 0 1 -10e-4,-3.565 m -7.134,-7.133 34.015,-34.014 a 2.53,2.53 0 0 1 3.568,0 2.537,2.537 0 0 1 -0.003,3.568 l -34.013,34.01 a 2.53,2.53 0 0 1 -3.564,0.004 2.536,2.536 0 0 1 -0.004,-3.568 m -7.134,-7.138 40.216,-40.2170003 a 2.539,2.539 0 0 1 3.578,0.003 c 0.97,0.972 0.973,2.587 -0.003,3.566 l -40.222,40.2160003 a 2.526,2.526 0 0 1 -3.56,0.005 2.542,2.542 0 0 1 -0.009,-3.573"
     id="path1" /><path
     style="clip-rule:evenodd;fill:#6a7029;fill-rule:evenodd"
     d="m 51.399394,27.591751 -23.292,-23.2920003 a 2.527,2.527 0 0 1 -0.004,-3.56799999 2.543,2.543 0 0 1 3.57,0 l 23.293,23.29200029 c 0.978,0.98 0.978,2.59 -0.002,3.57 a 2.535,2.535 0 0 1 -3.565,-0.002 m -7.319,6.951 -30.003,-30.0030003 a 2.53,2.53 0 0 1 0,-3.56799999 2.536,2.536 0 0 1 3.566,0 l 30.003,30.00600029 a 2.532,2.532 0 0 1 0,3.566 2.535,2.535 0 0 1 -3.566,0 m -7.241,7.028 L 0.73639443,5.4677507 a 2.534,2.534 0 0 1 0.003,-3.575 C 1.7103944,0.92275071 3.3273944,0.91975071 4.3043944,1.8967507 L 40.407394,38.000751 a 2.53,2.53 0 0 1 0.002,3.563 2.536,2.536 0 0 1 -3.57,0.007 m -9.972,1.219 v -0.007 c 0,0 -0.464,0.494 -1.088,1.325 -0.021,0.033 -0.049,0.062 -0.07,0.095 -1.341,1.812 -3.42,5.257 -3.853,9.775 -0.644,6.746 2.183,10.677 2.183,10.677 0,0 -0.362,-3.988 1.632,-6.395 a 9.838,9.838 0 0 1 1.458,-1.442 c 1.766,1.67 4.134,2.713 6.758,2.713 a 9.83,9.83 0 0 0 7.545,-3.516 c 1.438,-1.71 -12.779,-15.045 -14.565,-13.225"
     id="path2" /><g
     style="font-style:normal;font-weight:400;font-size:50.789px;line-height:125%;font-family:Nunito;letter-spacing:-1.26973px;word-spacing:0;fill:#df5206;fill-opacity:1;stroke:none;stroke-width:1px;stroke-linecap:butt;stroke-linejoin:miter;stroke-opacity:1"
     id="g3"
     transform="translate(3.944246e-4,7.5069952e-4)"><path
       style="font-style:normal;font-variant:normal;font-weight:700;font-stretch:normal;font-family:Nunito;-inkscape-font-specification:'Nunito Bold';letter-spacing:-1.26973px"
       d="m 111.219,64.462 q 1.438,0 2.504,-1.016 1.067,-1.017 1.067,-2.63 V 46.83 l 13.242,15.326 q 0.62,0.769 0.992,1.166 0.372,0.396 0.968,0.768 0.595,0.347 1.165,0.347 h 0.05 q 1.364,0 2.43,-0.967 1.091,-0.967 1.091,-2.306 0,-1.314 -0.967,-2.629 l -11.63,-12.97 10.465,-11.333 q 0.967,-1.166 0.967,-2.406 0,-1.29 -1.017,-2.182 -1.017,-0.918 -2.306,-0.918 -1.34,0 -2.902,1.935 L 114.79,44.92 V 32.346 q 0,-1.637 -1.067,-2.653 -1.066,-1.017 -2.504,-1.017 -1.439,0 -2.505,1.017 -1.042,1.016 -1.042,2.653 v 28.47 q 0,1.637 1.042,2.653 1.041,0.992 2.505,0.992 z m 32.259,0 h 18.376 q 1.19,0 1.885,-0.818 0.719,-0.843 0.719,-1.96 0,-1.115 -0.72,-1.958 -0.694,-0.844 -1.884,-0.844 h -14.805 v -9.944 h 13.267 q 1.215,0 1.935,-0.818 0.744,-0.819 0.744,-1.935 0,-1.116 -0.72,-1.934 -0.719,-0.819 -1.959,-0.819 H 147.05 v -9.126 h 14.234 q 1.216,0 1.935,-0.843 0.719,-0.843 0.719,-1.959 0,-1.116 -0.72,-1.96 -0.718,-0.842 -1.934,-0.842 h -17.632 q -1.76,0 -2.728,1.19 -0.942,1.166 -0.942,3 V 60.47 q 0,1.562 1.017,2.777 1.016,1.215 2.48,1.215 z M 190.07,51.443 h -12.25 l 6.125,-16.343 6.126,16.343 z m 4.018,10.738 q 0.422,1.215 1.29,1.835 0.868,0.595 1.934,0.595 1.34,0 2.38,-0.893 1.042,-0.892 1.042,-2.256 0,-0.62 -0.248,-1.265 L 189.6,32.942 q -1.041,-2.752 -2.405,-3.695 -1.34,-0.942 -3.249,-0.942 -1.91,0 -3.273,0.942 -1.34,0.943 -2.381,3.695 l -10.887,27.255 q -0.248,0.645 -0.248,1.265 0,1.364 1.041,2.256 1.042,0.893 2.381,0.893 1.067,0 1.935,-0.595 0.868,-0.62 1.29,-1.835 l 2.231,-5.952 h 15.822 l 2.232,5.952 z"
       transform="scale(0.99932,1.00068)"
       id="path3" /></g><g
     style="font-style:normal;font-weight:400;font-size:50.5475px;line-height:125%;font-family:Nunito;letter-spacing:0;word-spacing:0;fill:#6a7029;fill-opacity:1;stroke:none;stroke-width:1px;stroke-linecap:butt;stroke-linejoin:miter;stroke-opacity:1"
     id="g4"
     transform="translate(3.944246e-4,7.5069952e-4)"><path
       style="font-style:normal;font-variant:normal;font-weight:400;font-stretch:normal;font-family:Nunito;-inkscape-font-specification:Nunito;letter-spacing:-1.89553px;fill:#6a7029;fill-opacity:1"
       d="M 217.877,60.09 V 32.741 h 5.554 q 7.33,0 10.736,3.16 3.406,3.159 3.406,10.514 0,3.48 -0.69,5.973 -0.692,2.468 -2.247,4.245 -1.53,1.752 -4.097,2.616 -2.567,0.84 -6.269,0.84 h -6.393 z m -2.492,3.948 h 8.638 q 8.96,0 13.846,-4.492 4.887,-4.517 4.887,-13.056 0,-8.663 -4.837,-13.18 -4.838,-4.542 -14.118,-4.542 h -8.416 q -1.037,0 -1.777,0.716 -0.716,0.691 -0.716,1.703 V 61.62 q 0,1.012 0.716,1.728 0.74,0.691 1.777,0.691 z m 57.586,-1.407 q 0.617,1.63 2.27,1.63 0.964,0 1.729,-0.618 0.765,-0.617 0.765,-1.555 0,-0.395 -0.198,-0.913 l -11.723,-29.1 q -0.84,-2.097 -1.827,-2.764 -0.962,-0.69 -2.419,-0.69 -1.456,0 -2.443,0.69 -0.963,0.667 -1.802,2.765 l -11.723,29.1 q -0.198,0.517 -0.198,0.912 0,0.938 0.74,1.555 0.766,0.617 1.728,0.617 1.679,0 2.296,-1.629 l 2.912,-7.503 h 16.98 z m -4.319,-11.082 h -14.167 l 7.083,-18.24 z m 23.23,12.563 q 1.012,0 1.753,-0.642 0.74,-0.641 0.74,-1.752 V 32.816 h 9.181 q 0.963,0 1.506,-0.592 0.543,-0.593 0.543,-1.407 0,-0.814 -0.543,-1.382 -0.518,-0.593 -1.506,-0.593 h -23.472 q -0.962,0 -1.505,0.593 -0.543,0.592 -0.543,1.382 0,0.814 0.543,1.407 0.543,0.592 1.505,0.592 h 9.305 v 28.902 q 0,1.11 0.74,1.752 0.741,0.642 1.753,0.642 z m 41.47,-1.481 q 0.617,1.63 2.27,1.63 0.963,0 1.728,-0.618 0.765,-0.617 0.765,-1.555 0,-0.395 -0.197,-0.913 l -11.724,-29.1 q -0.839,-2.097 -1.826,-2.764 -0.963,-0.69 -2.419,-0.69 -1.456,0 -2.443,0.69 -0.963,0.667 -1.802,2.765 l -11.724,29.1 q -0.197,0.517 -0.197,0.912 0,0.938 0.74,1.555 0.765,0.617 1.728,0.617 1.678,0 2.295,-1.629 l 2.913,-7.503 h 16.98 z m -4.32,-11.082 h -14.167 l 7.084,-18.24 7.084,18.24 z M 347.08,44.046 V 32.668 h 7.256 q 1.357,0 2.345,0.124 1.012,0.098 2.024,0.42 1.011,0.32 1.653,0.888 0.642,0.567 1.037,1.53 0.42,0.962 0.42,2.295 0,3.258 -1.926,4.69 -1.9,1.431 -6.071,1.431 z m 0,16.191 V 47.872 h 6.195 q 5.035,0 7.355,1.308 2.32,1.308 2.32,4.862 0,3.604 -1.876,4.912 -1.851,1.283 -6.022,1.283 z m -2.493,3.875 h 11.477 q 3.01,0 5.38,-0.79 2.37,-0.79 3.776,-2.122 1.432,-1.358 2.172,-3.011 0.74,-1.679 0.74,-3.53 0,-3.924 -2.295,-6.17 -2.27,-2.27 -6.293,-2.715 v -0.099 q 3.43,-0.444 5.257,-2.665 1.85,-2.222 1.85,-5.38 0,-4.172 -2.96,-6.467 -2.963,-2.32 -9.158,-2.32 h -9.946 q -1.012,0 -1.728,0.69 -0.716,0.692 -0.716,1.704 v 30.481 q 0,0.987 0.716,1.703 0.716,0.691 1.728,0.691 z m 52.798,-1.481 q 0.617,1.63 2.27,1.63 0.963,0 1.729,-0.618 0.765,-0.617 0.765,-1.555 0,-0.395 -0.198,-0.913 l -11.723,-29.1 q -0.84,-2.097 -1.827,-2.764 -0.962,-0.69 -2.419,-0.69 -1.456,0 -2.443,0.69 -0.963,0.667 -1.802,2.765 l -11.723,29.1 q -0.198,0.517 -0.198,0.912 0,0.938 0.74,1.555 0.766,0.617 1.728,0.617 1.679,0 2.296,-1.629 l 2.912,-7.503 h 16.98 z m -4.319,-11.082 h -14.167 l 7.083,-18.24 z m 24.439,13.106 q 6.121,0 9.676,-2.69 3.578,-2.69 3.578,-7.528 0,-2 -0.617,-3.53 -0.592,-1.53 -1.826,-2.616 -1.21,-1.11 -2.715,-1.875 -1.48,-0.765 -3.628,-1.457 l -7.108,-2.295 q -2.518,-0.84 -3.678,-1.974 -1.135,-1.16 -1.135,-3.086 0,-2.566 2.221,-3.924 2.221,-1.357 5.924,-1.357 2.591,0 4.862,0.839 2.295,0.814 3.8,1.801 0.519,0.346 1.087,0.346 0.79,0 1.357,-0.617 0.568,-0.617 0.568,-1.382 0,-0.74 -0.568,-1.234 -1.678,-1.506 -4.862,-2.616 -3.16,-1.136 -6.64,-1.136 -3.553,0 -6.392,1.11 -2.814,1.112 -4.492,3.283 -1.654,2.172 -1.654,5.035 0,3.555 1.926,5.578 1.925,2.024 5.85,3.357 l 7.083,2.37 q 1.58,0.543 2.567,1.011 0.987,0.47 1.752,1.16 0.79,0.692 1.11,1.63 0.346,0.913 0.346,2.22 0,2.716 -2.295,4.147 -2.27,1.432 -5.874,1.432 -5.529,0 -9.725,-3.258 -0.271,-0.198 -0.617,-0.198 -0.765,0 -1.53,0.84 -0.74,0.839 -0.74,1.629 0,0.468 0.296,0.74 4.566,4.245 12.093,4.245 z m 20.935,-0.543 h 18.807 q 0.938,0 1.457,-0.567 0.518,-0.593 0.518,-1.407 0,-0.815 -0.518,-1.407 -0.519,-0.593 -1.457,-0.593 h -16.29 V 47.921 h 14.81 q 0.937,0 1.456,-0.567 0.543,-0.593 0.543,-1.383 0,-0.79 -0.519,-1.357 -0.518,-0.568 -1.48,-0.568 h -14.81 v -11.23 h 15.649 q 0.938,0 1.456,-0.592 0.518,-0.593 0.518,-1.407 0,-0.814 -0.518,-1.382 -0.518,-0.593 -1.456,-0.593 h -18.29 q -0.986,0 -1.678,0.74 -0.666,0.717 -0.666,1.68 v 30.431 q 0,0.963 0.74,1.703 0.766,0.716 1.728,0.716 z"
       id="path4" /></g></svg>
