<svg xmlns="http://www.w3.org/2000/svg" xml:space="preserve" height="64.655" width="459.222"><g style="fill:#807e77;fill-opacity:1"><path d="m77.38 92.026 27.119-27.117a2.536 2.536 0 0 1 3.57-.004 2.545 2.545 0 0 1-.005 3.573L80.949 95.594a2.532 2.532 0 0 1-3.568-.003 2.539 2.539 0 0 1-.001-3.565M70.246 84.893l34.015-34.014a2.53 2.53 0 0 1 3.568 0 2.537 2.537 0 0 1-.003 3.568l-34.013 34.01a2.53 2.53 0 0 1-3.564.004 2.536 2.536 0 0 1-.004-3.568M63.111 77.755l40.216-40.217a2.539 2.539 0 0 1 3.578.003c.97.972.973 2.587-.003 3.566L66.68 81.323a2.526 2.526 0 0 1-3.56.005 2.542 2.542 0 0 1-.009-3.573M70.599 59.264 47.307 35.972a2.527 2.527 0 0 1-.004-3.568 2.543 2.543 0 0 1 3.57 0l23.293 23.292c.978.98.978 2.59-.002 3.57a2.535 2.535 0 0 1-3.565-.002M63.28 66.215 33.277 36.212a2.53 2.53 0 0 1 0-3.568 2.536 2.536 0 0 1 3.566 0L66.846 62.65a2.532 2.532 0 0 1 0 3.566 2.535 2.535 0 0 1-3.566 0M56.039 73.244 19.936 37.14a2.534 2.534 0 0 1 .003-3.575c.971-.97 2.588-.973 3.565.004l36.103 36.104a2.53 2.53 0 0 1 .002 3.563 2.536 2.536 0 0 1-3.57.007M46.067 74.462v-.007s-.464.494-1.088 1.325c-.021.033-.049.062-.07.095-1.341 1.812-3.42 5.257-3.853 9.775-.644 6.746 2.183 10.677 2.183 10.677s-.362-3.988 1.632-6.395a9.838 9.838 0 0 1 1.458-1.442c1.766 1.67 4.134 2.713 6.758 2.713a9.83 9.83 0 0 0 7.545-3.516c1.438-1.71-12.779-15.045-14.565-13.225" style="clip-rule:evenodd;fill:#807e77;fill-rule:evenodd;fill-opacity:1" transform="translate(-19.2 -31.673)"/></g><g style="font-style:normal;font-weight:400;font-size:50.78902054000000277px;line-height:125%;font-family:Nunito;letter-spacing:-1.26972555999999992px;word-spacing:0;fill:#807e77;fill-opacity:1;stroke:none;stroke-width:1px;stroke-linecap:butt;stroke-linejoin:miter;stroke-opacity:1"><path d="M111.219 64.462q1.438 0 2.504-1.016 1.067-1.017 1.067-2.63V46.83l13.242 15.326q.62.769.992 1.166.372.396.968.768.595.347 1.165.347h.05q1.364 0 2.43-.967 1.091-.967 1.091-2.306 0-1.314-.967-2.629l-11.63-12.97 10.465-11.333q.967-1.166.967-2.406 0-1.29-1.017-2.182-1.017-.918-2.306-.918-1.34 0-2.902 1.935L114.79 44.92V32.346q0-1.637-1.067-2.653-1.066-1.017-2.504-1.017-1.439 0-2.505 1.017-1.042 1.016-1.042 2.653v28.47q0 1.637 1.042 2.653 1.041.992 2.505.992zM143.478 64.462h18.376q1.19 0 1.885-.818.719-.843.719-1.96 0-1.115-.72-1.958-.694-.844-1.884-.844h-14.805v-9.944h13.267q1.215 0 1.935-.818.744-.819.744-1.935t-.72-1.934q-.719-.819-1.959-.819H147.05v-9.126h14.234q1.216 0 1.935-.843.719-.843.719-1.959t-.72-1.96q-.718-.842-1.934-.842h-17.632q-1.76 0-2.728 1.19-.942 1.166-.942 3V60.47q0 1.562 1.017 2.777 1.016 1.215 2.48 1.215zM190.07 51.443h-12.25l6.125-16.343 6.126 16.343zm4.018 10.738q.422 1.215 1.29 1.835.868.595 1.934.595 1.34 0 2.38-.893 1.042-.892 1.042-2.256 0-.62-.248-1.265L189.6 32.942q-1.041-2.752-2.405-3.695-1.34-.942-3.249-.942-1.91 0-3.273.942-1.34.943-2.381 3.695l-10.887 27.255q-.248.645-.248 1.265 0 1.364 1.041 2.256 1.042.893 2.381.893 1.067 0 1.935-.595.868-.62 1.29-1.835l2.231-5.952h15.822l2.232 5.952z" style="font-style:normal;font-variant:normal;font-weight:700;font-stretch:normal;font-family:Nunito;-inkscape-font-specification:'Nunito Bold';letter-spacing:-1.26972555999999992px;fill:#807e77;fill-opacity:1" transform="scale(.99932 1.00068)"/></g><g style="font-style:normal;font-weight:400;font-size:50.54747772000000339px;line-height:125%;font-family:Nunito;letter-spacing:0;word-spacing:0;fill:#807e77;fill-opacity:1;stroke:none;stroke-width:1px;stroke-linecap:butt;stroke-linejoin:miter;stroke-opacity:1"><path d="M217.877 60.09V32.741h5.554q7.33 0 10.736 3.16 3.406 3.159 3.406 10.514 0 3.48-.69 5.973-.692 2.468-2.247 4.245-1.53 1.752-4.097 2.616-2.567.84-6.269.84h-6.393zm-2.492 3.948h8.638q8.96 0 13.846-4.492 4.887-4.517 4.887-13.056 0-8.663-4.837-13.18-4.838-4.542-14.118-4.542h-8.416q-1.037 0-1.777.716-.716.691-.716 1.703V61.62q0 1.012.716 1.728.74.691 1.777.691zM272.971 62.631q.617 1.63 2.27 1.63.964 0 1.729-.618.765-.617.765-1.555 0-.395-.198-.913l-11.723-29.1q-.84-2.097-1.827-2.764-.962-.69-2.419-.69-1.456 0-2.443.69-.963.667-1.802 2.765l-11.723 29.1q-.198.517-.198.912 0 .938.74 1.555.766.617 1.728.617 1.679 0 2.296-1.629l2.912-7.503h16.98l2.913 7.503zm-4.319-11.082h-14.167l7.083-18.24 7.084 18.24zM291.882 64.112q1.012 0 1.753-.642.74-.641.74-1.752V32.816h9.181q.963 0 1.506-.592.543-.593.543-1.407 0-.814-.543-1.382-.518-.593-1.506-.593h-23.472q-.962 0-1.505.593-.543.592-.543 1.382 0 .814.543 1.407.543.592 1.505.592h9.305v28.902q0 1.11.74 1.752.741.642 1.753.642zM333.352 62.631q.617 1.63 2.27 1.63.963 0 1.728-.618.765-.617.765-1.555 0-.395-.197-.913l-11.724-29.1q-.839-2.097-1.826-2.764-.963-.69-2.419-.69t-2.443.69q-.963.667-1.802 2.765l-11.724 29.1q-.197.517-.197.912 0 .938.74 1.555.765.617 1.728.617 1.678 0 2.295-1.629l2.913-7.503h16.98l2.913 7.503zm-4.32-11.082h-14.167l7.084-18.24 7.084 18.24zM347.08 44.046V32.668h7.256q1.357 0 2.345.124 1.012.098 2.024.42 1.011.32 1.653.888.642.567 1.037 1.53.42.962.42 2.295 0 3.258-1.926 4.69-1.9 1.431-6.071 1.431h-6.738zm0 16.191V47.872h6.195q5.035 0 7.355 1.308 2.32 1.308 2.32 4.862 0 3.604-1.876 4.912-1.851 1.283-6.022 1.283h-7.972zm-2.493 3.875h11.477q3.01 0 5.38-.79t3.776-2.122q1.432-1.358 2.172-3.011.74-1.679.74-3.53 0-3.924-2.295-6.17-2.27-2.27-6.293-2.715v-.099q3.43-.444 5.257-2.665 1.85-2.222 1.85-5.38 0-4.172-2.96-6.467-2.963-2.32-9.158-2.32h-9.946q-1.012 0-1.728.69-.716.692-.716 1.704v30.481q0 .987.716 1.703.716.691 1.728.691zM397.385 62.631q.617 1.63 2.27 1.63.963 0 1.729-.618.765-.617.765-1.555 0-.395-.198-.913l-11.723-29.1q-.84-2.097-1.827-2.764-.962-.69-2.419-.69-1.456 0-2.443.69-.963.667-1.802 2.765l-11.723 29.1q-.198.517-.198.912 0 .938.74 1.555.766.617 1.728.617 1.679 0 2.296-1.629l2.912-7.503h16.98l2.913 7.503zm-4.319-11.082h-14.167l7.083-18.24 7.084 18.24zM417.505 64.655q6.121 0 9.676-2.69 3.578-2.69 3.578-7.528 0-2-.617-3.53-.592-1.53-1.826-2.616-1.21-1.11-2.715-1.875-1.48-.765-3.628-1.457l-7.108-2.295q-2.518-.84-3.678-1.974-1.135-1.16-1.135-3.086 0-2.566 2.221-3.924 2.221-1.357 5.924-1.357 2.591 0 4.862.839 2.295.814 3.8 1.801.519.346 1.087.346.79 0 1.357-.617.568-.617.568-1.382 0-.74-.568-1.234-1.678-1.506-4.862-2.616-3.16-1.136-6.64-1.136-3.553 0-6.392 1.11-2.814 1.112-4.492 3.283-1.654 2.172-1.654 5.035 0 3.555 1.926 5.578 1.925 2.024 5.85 3.357l7.083 2.37q1.58.543 2.567 1.011.987.47 1.752 1.16.79.692 1.11 1.63.346.913.346 2.22 0 2.716-2.295 4.147-2.27 1.432-5.874 1.432-5.529 0-9.725-3.258-.271-.198-.617-.198-.765 0-1.53.84-.74.839-.74 1.629 0 .468.296.74 4.566 4.245 12.093 4.245zM438.44 64.112h18.807q.938 0 1.457-.567.518-.593.518-1.407 0-.815-.518-1.407-.519-.593-1.457-.593h-16.29V47.921h14.81q.937 0 1.456-.567.543-.593.543-1.383t-.519-1.357q-.518-.568-1.48-.568h-14.81v-11.23h15.649q.938 0 1.456-.592.518-.593.518-1.407 0-.814-.518-1.382-.518-.593-1.456-.593h-18.29q-.986 0-1.678.74-.666.717-.666 1.68v30.431q0 .963.74 1.703.766.716 1.728.716z" style="font-style:normal;font-variant:normal;font-weight:400;font-stretch:normal;font-family:Nunito;-inkscape-font-specification:Nunito;letter-spacing:-1.89553046000000003px;fill:#807e77;fill-opacity:1"/></g></svg>