<svg xmlns="http://www.w3.org/2000/svg" width="180" height="180" viewBox="0 0 50.8 50.8"><g transform="translate(-79.6 -123.1)"><circle style="fill:#231f20;fill-opacity:1;stroke:none;stroke-width:1.04588234;stroke-miterlimit:4;stroke-dasharray:none" cx="105" cy="148.5" r="25.4"/><path style="clip-rule:evenodd;fill:#df5206;fill-rule:evenodd;stroke-width:.38221318" d="m104.66 153.757 15.372-15.371a.97.97 0 0 1 1.367 0 .972.972 0 0 1-.001 1.364l-15.373 15.371a.966.966 0 0 1-1.361.002.972.972 0 0 1-.003-1.366m2.726 2.728 13.002-13a.967.967 0 0 1 1.363 0 .97.97 0 0 1 0 1.363l-13.001 13a.967.967 0 0 1-1.362 0 .97.97 0 0 1-.001-1.363m2.726 2.727 10.366-10.365a.97.97 0 0 1 1.364-.002.972.972 0 0 1-.002 1.366l-10.364 10.364a.968.968 0 0 1-1.364 0 .97.97 0 0 1 0-1.363"/><path style="clip-rule:evenodd;fill:#6a7029;fill-rule:evenodd;stroke-width:.38221318" d="m101.957 152.033-13.799-13.799a.969.969 0 0 1 .002-1.366.97.97 0 0 1 1.362.002l13.8 13.799a.967.967 0 0 1 0 1.362.97.97 0 0 1-1.365.003m2.768-2.687-11.467-11.468a.967.967 0 0 1 0-1.364.97.97 0 0 1 1.363 0l11.467 11.469a.968.968 0 0 1 0 1.363.969.969 0 0 1-1.363 0m2.797-2.657-8.902-8.903a.966.966 0 0 1-.001-1.363.972.972 0 0 1 1.364 0l8.903 8.902a.97.97 0 0 1-.001 1.364.97.97 0 0 1-1.363 0M98.146 152.498v-.003s-.177.19-.416.507c-.008.013-.018.024-.027.036-.512.693-1.307 2.01-1.472 3.736-.246 2.579.834 4.081.834 4.081s-.138-1.524.624-2.444a3.76 3.76 0 0 1 .557-.551 3.747 3.747 0 0 0 2.583 1.037 3.757 3.757 0 0 0 2.884-1.344c.55-.654-4.884-5.75-5.567-5.055"/></g></svg>