<?xml version="1.0" encoding="UTF-8" standalone="no"?>
<svg
   width="96"
   height="96"
   viewBox="0 0 95.999999 96"
   version="1.1"
   id="svg4"
   xmlns="http://www.w3.org/2000/svg"
   xmlns:svg="http://www.w3.org/2000/svg">
  <defs
     id="defs4" />
  <g
     id="g3"
     transform="matrix(1.0714367,0,0,1.0714367,9.4878881e-7,13.36287)">
    <path
       style="clip-rule:evenodd;fill:#df5206;fill-rule:evenodd"
       d="m 58.180394,60.353751 27.119,-27.117 a 2.536,2.536 0 0 1 3.57,-0.004 2.545,2.545 0 0 1 -0.005,3.573 l -27.115,27.116 a 2.532,2.532 0 0 1 -3.568,-0.003 2.539,2.539 0 0 1 -10e-4,-3.565 m -7.134,-7.133 34.015,-34.014 a 2.53,2.53 0 0 1 3.568,0 2.537,2.537 0 0 1 -0.003,3.568 l -34.013,34.01 a 2.53,2.53 0 0 1 -3.564,0.004 2.536,2.536 0 0 1 -0.004,-3.568 m -7.134,-7.138 40.216,-40.2170003 a 2.539,2.539 0 0 1 3.578,0.003 c 0.97,0.972 0.973,2.587 -0.003,3.566 l -40.222,40.2160003 a 2.526,2.526 0 0 1 -3.56,0.005 2.542,2.542 0 0 1 -0.009,-3.573"
       id="path1" />
    <path
       style="clip-rule:evenodd;fill:#6a7029;fill-rule:evenodd"
       d="m 51.399394,27.591751 -23.292,-23.2920003 a 2.527,2.527 0 0 1 -0.004,-3.56799999 2.543,2.543 0 0 1 3.57,0 l 23.293,23.29200029 c 0.978,0.98 0.978,2.59 -0.002,3.57 a 2.535,2.535 0 0 1 -3.565,-0.002 m -7.319,6.951 -30.003,-30.0030003 a 2.53,2.53 0 0 1 0,-3.56799999 2.536,2.536 0 0 1 3.566,0 l 30.003,30.00600029 a 2.532,2.532 0 0 1 0,3.566 2.535,2.535 0 0 1 -3.566,0 m -7.241,7.028 L 0.73639443,5.4677507 a 2.534,2.534 0 0 1 0.003,-3.575 C 1.7103944,0.92275071 3.3273944,0.91975071 4.3043944,1.8967507 L 40.407394,38.000751 a 2.53,2.53 0 0 1 0.002,3.563 2.536,2.536 0 0 1 -3.57,0.007 m -9.972,1.219 v -0.007 c 0,0 -0.464,0.494 -1.088,1.325 -0.021,0.033 -0.049,0.062 -0.07,0.095 -1.341,1.812 -3.42,5.257 -3.853,9.775 -0.644,6.746 2.183,10.677 2.183,10.677 0,0 -0.362,-3.988 1.632,-6.395 a 9.838,9.838 0 0 1 1.458,-1.442 c 1.766,1.67 4.134,2.713 6.758,2.713 a 9.83,9.83 0 0 0 7.545,-3.516 c 1.438,-1.71 -12.779,-15.045 -14.565,-13.225"
       id="path2" />
  </g>
</svg>
